<?xml version="1.0" encoding="UTF-8" standalone="no"?>
<!-- Created with Inkscape (http://www.inkscape.org/) -->

<svg
   width="24.22397mm"
   height="24.22397mm"
   viewBox="0 0 24.22397 24.22397"
   version="1.1"
   id="svg1"
   sodipodi:docname="favicon.svg"
   inkscape:version="1.4.2 (ebf0e940d0, 2025-05-08)"
   xmlns:inkscape="http://www.inkscape.org/namespaces/inkscape"
   xmlns:sodipodi="http://sodipodi.sourceforge.net/DTD/sodipodi-0.dtd"
   xmlns="http://www.w3.org/2000/svg"
   xmlns:svg="http://www.w3.org/2000/svg">
  <sodipodi:namedview
     id="namedview1"
     pagecolor="#ffffff"
     bordercolor="#000000"
     borderopacity="0.25"
     inkscape:showpageshadow="2"
     inkscape:pageopacity="0.0"
     inkscape:pagecheckerboard="false"
     inkscape:deskcolor="#d1d1d1"
     inkscape:document-units="mm"
     inkscape:zoom="4.6488699"
     inkscape:cx="101.85271"
     inkscape:cy="56.035123"
     inkscape:window-width="3840"
     inkscape:window-height="2048"
     inkscape:window-x="0"
     inkscape:window-y="32"
     inkscape:window-maximized="1"
     inkscape:current-layer="layer1" />
  <defs
     id="defs1" />
  <g
     inkscape:label="Layer 1"
     inkscape:groupmode="layer"
     id="layer1"
     transform="translate(-174.76015,-124.8114)">
    <g
       id="g1"
       transform="translate(-40.838948,-5.2277923)"
       style="fill:#f2f2f2">
      <path
         style="fill-opacity:1;stroke-width:0.369632;fill:#f2f2f2"
         d="m 225.82547,133.87865 c 0.97459,-0.42156 1.96416,-0.4876 2.69745,-0.1801 0.49533,0.20769 0.7732,0.47934 0.60583,0.59217 -0.046,0.031 -0.23505,0.0682 -0.42017,0.083 -1.64415,0.13036 -3.71398,2.01557 -5.20402,4.73984 -1.41017,2.5783 -1.97595,5.39206 -1.502,7.46985 0.0511,0.22396 0.26248,0.67121 0.4815,1.0194 0.52644,0.83611 1.00752,1.07175 2.00786,0.98349 0.66052,-0.0583 0.78132,-0.10486 1.66576,-0.6424 1.44516,-0.87833 1.40998,-0.51589 -0.10016,1.03149 -1.22879,1.2591 -2.81954,2.1581 -3.98924,2.25448 -0.54567,0.0449 -1.42958,-0.20084 -1.87709,-0.52201 -0.57653,-0.41375 -1.21804,-1.51944 -1.40267,-2.4175 -0.65432,-3.18306 0.72455,-7.82911 3.33436,-11.23513 1.12401,-1.46693 2.52111,-2.66557 3.70253,-3.17658 z m 6.68134,-0.62145 c 0.83421,-0.24422 1.45666,-0.2526 2.05986,-0.0277 1.94521,0.7253 2.69313,3.44561 1.94004,7.05634 -0.66943,3.2096 -2.38543,6.39877 -4.57454,8.50175 -1.68056,1.61443 -3.56303,2.32215 -4.88946,1.83813 -0.92086,-0.33599 -1.0212,-0.61899 -0.25341,-0.71427 0.76395,-0.0948 1.61402,-0.53092 2.42254,-1.2427 2.09461,-1.84395 3.59813,-4.56992 4.19318,-7.60238 0.22331,-1.13796 0.24725,-2.01939 0.0826,-3.04254 -0.19526,-1.21389 -0.83564,-2.05543 -1.74937,-2.29892 -0.79688,-0.21237 -2.18214,0.23005 -3.02264,0.96536 -0.20663,0.18077 -0.38129,0.27487 -0.445,0.23999 -0.22486,-0.12318 0.18389,-0.68898 1.37018,-1.89648 0.65677,-0.6685 2.06688,-1.54253 2.86587,-1.77657 z"
         id="path5-87-5-3-9"
         sodipodi:nodetypes="ssscsccssssssssscsssssssssccscc" />
      <circle
         style="fill-opacity:1;stroke:none;stroke-width:0;stroke-dasharray:none;stroke-opacity:1;fill:#f2f2f2"
         id="path6-9-9-8-8"
         cx="-142.15115"
         cy="227.71107"
         r="3.1788375"
         transform="rotate(-90)" />
    </g>
  </g>
</svg>
