<?xml version="1.0" encoding="UTF-8" standalone="no"?>
<!-- Created with Inkscape (http://www.inkscape.org/) -->

<svg
   viewBox="0 0 18.168001 18.168007"
   version="1.1"
   id="svg1"
   sodipodi:docname="logo.svg"
   inkscape:version="1.4.2 (f4327f4, 2025-05-13)"
   xmlns:inkscape="http://www.inkscape.org/namespaces/inkscape"
   xmlns:sodipodi="http://sodipodi.sourceforge.net/DTD/sodipodi-0.dtd"
   xmlns:xlink="http://www.w3.org/1999/xlink"
   xmlns="http://www.w3.org/2000/svg"
   xmlns:svg="http://www.w3.org/2000/svg">
  <sodipodi:namedview
     id="namedview1"
     pagecolor="#ffffff"
     bordercolor="currentcolor"
     borderopacity="0.25"
     inkscape:showpageshadow="2"
     inkscape:pageopacity="0.0"
     inkscape:pagecheckerboard="0"
     inkscape:deskcolor="#d1d1d1"
     inkscape:document-units="mm"
     inkscape:zoom="9.2977399"
     inkscape:cx="8.335359"
     inkscape:cy="25.436289"
     inkscape:window-width="1920"
     inkscape:window-height="1017"
     inkscape:window-x="1912"
     inkscape:window-y="-8"
     inkscape:window-maximized="1"
     inkscape:current-layer="layer1"
     showgrid="true">
    <inkscape:grid
       id="grid3"
       units="mm"
       originx="0"
       originy="0"
       spacingx="0.99999999"
       spacingy="1"
       empcolor="#0099e5"
       empopacity="0.30196078"
       color="#0099e5"
       opacity="0.14901961"
       empspacing="5"
       enabled="true"
       visible="true" />
  </sodipodi:namedview>
  <defs
     id="defs1">
    <linearGradient
       id="linearGradient1"
       inkscape:collect="always">
      <stop
         style="stop-color:currentcolor;stop-opacity:1;"
         offset="0"
         id="stop1" />
      <stop
         style="stop-color:currentcolor;stop-opacity:0;"
         offset="1"
         id="stop2" />
    </linearGradient>
    <linearGradient
       inkscape:collect="always"
       xlink:href="#linearGradient1"
       id="linearGradient2"
       x1="177.62614"
       y1="132.54778"
       x2="191.02393"
       y2="127.2239"
       gradientUnits="userSpaceOnUse"
       gradientTransform="matrix(1.0407765,0,0,1,-7.239277,0)" />
    <linearGradient
       inkscape:collect="always"
       xlink:href="#linearGradient1"
       id="linearGradient4"
       gradientUnits="userSpaceOnUse"
       gradientTransform="matrix(-1.0407765,0,0,-1,380.47838,273.26113)"
       x1="177.62614"
       y1="132.54778"
       x2="191.02393"
       y2="127.2239" />
  </defs>
  <g
     inkscape:label="Layer 1"
     inkscape:groupmode="layer"
     id="layer1"
     transform="translate(-177.53555,-127.54656)">
    <path
       style="fill:url(#linearGradient4);fill-opacity:1;stroke-width:0.377093"
       d="m 188.21163,144.90309 c -1.01433,0.42156 -2.04425,0.4876 -2.80744,0.1801 -0.51553,-0.20769 -0.80473,-0.47934 -0.63053,-0.59217 0.0479,-0.031 0.24463,-0.0682 0.4373,-0.083 1.71119,-0.13036 3.86542,-2.01557 5.41622,-4.73984 1.46768,-2.5783 2.05653,-5.39206 1.56325,-7.46985 -0.0532,-0.22396 -0.27318,-0.67121 -0.50113,-1.0194 -0.54791,-0.83611 -1.04861,-1.07175 -2.08974,-0.98349 -0.68745,0.0583 -0.81318,0.10486 -1.73368,0.6424 -1.50409,0.87833 -1.46748,0.51589 0.10424,-1.03149 1.2789,-1.2591 2.93451,-2.1581 4.15191,-2.25448 0.56792,-0.0449 1.48787,0.20084 1.95363,0.52201 0.60004,0.41375 1.26771,1.51944 1.45987,2.4175 0.681,3.18306 -0.7541,7.82911 -3.47033,11.23513 -1.16984,1.46693 -2.62391,2.66557 -3.8535,3.17658 z"
       id="path5-87-5-3-9-8-4"
       sodipodi:nodetypes="ssscsccsssssssss" />
    <path
       style="fill:url(#linearGradient2);fill-opacity:1;stroke-width:0.377093"
       d="m 185.02747,128.35804 c 1.01433,-0.42156 2.04425,-0.4876 2.80744,-0.1801 0.51553,0.20769 0.80473,0.47934 0.63053,0.59217 -0.0479,0.031 -0.24463,0.0682 -0.4373,0.083 -1.71119,0.13036 -3.86542,2.01557 -5.41622,4.73984 -1.46768,2.5783 -2.05653,5.39206 -1.56325,7.46985 0.0532,0.22396 0.27318,0.67121 0.50113,1.0194 0.54791,0.83611 1.04861,1.07175 2.08974,0.98349 0.68745,-0.0583 0.81318,-0.10486 1.73368,-0.6424 1.50409,-0.87833 1.46748,-0.51589 -0.10424,1.03149 -1.2789,1.2591 -2.93451,2.1581 -4.15191,2.25448 -0.56792,0.0449 -1.48787,-0.20084 -1.95363,-0.52201 -0.60004,-0.41375 -1.26771,-1.51944 -1.45987,-2.4175 -0.681,-3.18306 0.7541,-7.82911 3.47033,-11.23513 1.16984,-1.46693 2.62391,-2.66557 3.8535,-3.17658 z"
       id="path5-87-5-3-9-8"
       sodipodi:nodetypes="ssscsccsssssssss" />
    <circle
       style="fill-opacity:1;stroke:none;stroke-width:0;stroke-dasharray:none;stroke-opacity:1;fill:currentcolor"
       id="path6-9-9-8-8"
       cx="-136.63055"
       cy="186.61955"
       r="3.1788375"
       transform="rotate(-90)" />
  </g>
</svg>
