<?xml version="1.0" encoding="UTF-8" standalone="no"?>
<!-- Created with Inkscape (http://www.inkscape.org/) -->

<svg
   width="96.775032mm"
   height="96.517929mm"
   viewBox="0 0 96.775038 96.517926"
   version="1.1"
   id="svg1"
   sodipodi:docname="logo-dark.svg"
   xml:space="preserve"
   inkscape:version="1.4 (e7c3feb100, 2024-10-09)"
   inkscape:export-filename="logo.png"
   inkscape:export-xdpi="600"
   inkscape:export-ydpi="600"
   xmlns:inkscape="http://www.inkscape.org/namespaces/inkscape"
   xmlns:sodipodi="http://sodipodi.sourceforge.net/DTD/sodipodi-0.dtd"
   xmlns="http://www.w3.org/2000/svg"
   xmlns:svg="http://www.w3.org/2000/svg"><sodipodi:namedview
     id="namedview1"
     pagecolor="#ffffff"
     bordercolor="#666666"
     borderopacity="1.0"
     inkscape:showpageshadow="2"
     inkscape:pageopacity="0.0"
     inkscape:pagecheckerboard="0"
     inkscape:deskcolor="#d1d1d1"
     inkscape:document-units="mm"
     showguides="true"
     inkscape:zoom="0.35355339"
     inkscape:cx="-145.664"
     inkscape:cy="643.46717"
     inkscape:window-width="2560"
     inkscape:window-height="1328"
     inkscape:window-x="0"
     inkscape:window-y="32"
     inkscape:window-maximized="1"
     inkscape:current-layer="layer1"
     showgrid="false"><sodipodi:guide
       position="48.4157,102.54311"
       orientation="1,0"
       id="guide1"
       inkscape:locked="false" /><sodipodi:guide
       position="43.722374,74.070263"
       orientation="0,-1"
       id="guide3"
       inkscape:locked="false" /><sodipodi:guide
       position="-11.09568,22.255938"
       orientation="0,-1"
       id="guide4"
       inkscape:locked="false" /><sodipodi:guide
       position="85.489426,112.45749"
       orientation="0,-1"
       id="guide5"
       inkscape:locked="false" /></sodipodi:namedview><defs
     id="defs1" /><g
     inkscape:label="Ebene 1"
     inkscape:groupmode="layer"
     id="layer1"
     transform="translate(-70.244719,-106.14816)"><path
       id="path1"
       style="fill:currentColor;fill-opacity:1;stroke:none;stroke-width:14.882;stroke-linecap:butt;stroke-linejoin:round;stroke-dasharray:none;stroke-opacity:1"
       d="M 118.17203 106.24531 L 70.322234 130.44745 L 70.432304 179.49355 L 118.03405 202.56915 L 166.82694 179.46048 L 166.94218 131.31923 L 118.17203 106.24531 z M 118.70791 113.15807 L 139.63015 123.66905 L 84.205624 152.82748 L 83.891948 178.46468 L 77.423092 175.26435 L 77.497506 149.29488 L 126.49503 124.28865 L 118.86914 120.30802 L 77.39312 141.8142 L 77.397254 133.89272 L 118.70791 113.15807 z M 146.58425 127.09934 L 146.58063 151.84666 L 90.884803 181.97299 L 90.900823 157.16107 L 146.58425 127.09934 z M 153.63033 130.60713 L 160.09918 133.80694 L 160.02529 159.77693 L 111.02724 184.78264 L 118.65313 188.76327 L 160.12916 167.25761 L 160.12554 175.17857 L 118.81488 195.91322 L 97.936569 185.31387 L 153.31717 156.24433 L 153.63033 130.60713 z M 139.80585 138.49347 L 97.647181 160.9319 L 97.567599 170.46361 L 139.85287 147.95181 L 139.80585 138.49347 z " /></g></svg>
