<svg xmlns="http://www.w3.org/2000/svg" viewBox="0 0 500 500"><g id="freepik--Shadows--inject-145" style="opacity: 0"><polygon id="freepik--Shadow--inject-145" points="190.59 481.03 32.98 390.03 319.52 224.65 477.14 315.65 190.59 481.03" style="fill:#e0e0e0"></polygon><path id="freepik--shadow--inject-145" d="M389.61,474.12a6.45,6.45,0,0,1-3.2-.78L384,472a2.7,2.7,0,0,1,0-5l31.66-18.33c-2.82-3.13-4.08-6.66-3.64-10.26.57-4.6,3.93-8.9,9.48-12.11,6-3.47,14-5.38,22.44-5.38s16.44,1.91,22.44,5.38c6.17,3.56,9.57,8.35,9.57,13.49s-3.4,9.93-9.57,13.49c-6,3.47-14,5.38-22.43,5.38h0c-8.15,0-15.86-1.78-21.79-5l-29,19.53A6.49,6.49,0,0,1,389.61,474.12Z" style="fill:#e0e0e0"></path><path id="freepik--shadow--inject-145" d="M457.35,376.2c-6.1-3.52-16.31-3.33-22.81.42l-120.71,69.7a10.39,10.39,0,0,0-9.09.15l-12.66,7.31c-2.6,1.5-2.6,3.93,0,5.43l21.49,12.41a10.4,10.4,0,0,0,9.41,0l12.66-7.31c2.5-1.44,2.57-3.74.27-5.25l120.71-69.69C463.12,385.62,463.45,379.72,457.35,376.2Z" style="fill:#e0e0e0"></path><path id="freepik--shadow--inject-145" d="M127.07,470.14c-1,2.81-4,4.56-9,5.22L46.67,433.58l-9.28-9.4a.72.72,0,0,1,.74-1.19l17.07,5.66Z" style="fill:#e0e0e0"></path></g><g id="freepik--Character--inject-145"><g id="freepik--character--inject-145"><g id="freepik--Chair--inject-145"><path d="M200.88,330.19c.24-3.15-2.25-6.74-7.8-11-10.25-7.87-47.48-33.76-61.94-43.35a.14.14,0,0,0-.11-.13c-11.08-8-13.56-62.75-19.59-88.95a45,45,0,0,0-1.31-4.84l-.12-.35c-.12-.35-.24-.71-.38-1.07-.06-.18-.12-.37-.19-.54h0a24.48,24.48,0,0,0-4.76-8.2,11.35,11.35,0,0,0-2.48-2.07c-1.26-.84-4.31-2.36-5-2.82-7.53-5.36-26.64,8.24-40.13,14.29-8.39,3.77-15.66,8.46-20.62,17.89h0a56.5,56.5,0,0,0-5.4,17.25c-2.22,13.39-1.77,58.3-.59,78h0c1.36,32.91,6.22,33.36,12.85,39.38,11.4,10.35,44.88,31.54,56.05,37,20.26,9.9,38.37-1.43,51.62-6.7s38.34-17.58,44-21.05c3.37-2.06,5.21-4.28,5.37-6.75C200.46,335.23,200.8,331.22,200.88,330.19Z" style="fill:#263238"></path><path d="M151.48,357.93c13.25-5.27,38.35-17.58,44-21,7.67-4.69,7.43-10.13-2.42-17.7-13.69-10.52-69.87-48.6-69.87-48.6s-65.32,31.47-80.79,45.22c-2.34,2.08-2.44,6.48-1.62,7.5,8.48,10.6,46.25,35.07,59.06,41.33C120.13,374.54,138.24,363.21,151.48,357.93Z" style="fill:#455a64"></path><path d="M102.19,169.69l-.21-.12a11.47,11.47,0,0,0-5.6-1.75c-6.85-.55-17.66,4.23-33.84,14.69a88.16,88.16,0,0,0-13.87,10.6l-.26.24a33.25,33.25,0,0,0-3.54,4c-.19.23-.36.46-.54.7s-.2.27-.29.41l-.65,1c-.43.66-.84,1.35-1.25,2l-.13.23-.46.87,0,0-5-3.48c5-9.43,12.56-14.28,20.39-19.09,13.5-8.27,28.53-19,38.11-14.38C95.7,165.92,100.93,168.85,102.19,169.69Z" style="fill:#455a64"></path><path d="M111.44,186.76c-.87-3.45-3.9-18.35-15.07-18.94-6.84-.55-17.65,4.24-33.83,14.69C55,187.38,46.32,193.62,42,201.68c-6.34,10-7.33,37.8-7,64.53s2.1,52.39,5.72,57.12c6.36-17.83,81.47-52.92,90.26-47.62C120,267.72,117.47,213,111.44,186.76Z" style="fill:#37474f"></path></g><g id="freepik--character--inject-145"><g id="freepik--Arma--inject-145"><path d="M244.63,203a6.62,6.62,0,0,1-1.13,2.63c-1.4-4.82-5.58-8.69-6.35-13.62-.83-5.32-2.34-8.23-3.76-12.59-.43-1.3-.7-3.22,1.18-3.13s3.93,2.11,5,3.45c.54.67.83,1.48,1.38,2.13.76.9,1.71,1.57,2.42,2.54a15,15,0,0,1,2.62,6.82A29.5,29.5,0,0,1,244.63,203Z" style="fill:#9a4a4d"></path><path d="M260.55,217c3.51-11.94,5.08-19.79,3.15-26.36-1.53-5.2-5.59-16-6.72-18.78-1-2.56-2.13-2.59-4.42-4.77s-5.39-4.61-6.82-5.89-2.66-1.07-6.54-.51-6.66,1-7.74,1.85-4.67,3.93-5.68,5.07.7,3.62,4.23,2.93c-1.56,2.12-2.5,3-2.84,5a26.44,26.44,0,0,0,0,5.45s-1.18,2-1.82,3.29.16,2.48,1.76,2.62,3.34-1.13,3.94-1.61c-.91,1.75-.82,2.38.08,3,1.59,1.09,4.31,0,6-1.17s3-1.91,3-1.91,2.51-.23,3.45.55.56,1.2,0,2.77c-.85,2.42-1.79,4.26-1.32,8.85.29,2.78,1.56,5.83-.16,10.6-1.41,4-16.62,24.08-16.62,24.08s-6.65-8.58-22.13-30c-10.16-14.07-24.08-37.83-38.57-36.48v42.59s37,49.36,44,57.41c8.78,10.12,18.48,17.94,28.87,2.82C251,249.19,254.48,237.7,260.55,217Z" style="fill:#b16668"></path><path d="M236.78,166.6a15.21,15.21,0,0,1,1.77-.76,2.15,2.15,0,0,1,.84-.18,4.9,4.9,0,0,1,.91.14,26.75,26.75,0,0,1,3.61,1.46,14.22,14.22,0,0,0-3.47-1.95,4.11,4.11,0,0,0-1-.23,3.08,3.08,0,0,0-1.07.16,16.09,16.09,0,0,0-1.86.76,20.73,20.73,0,0,0-6.4,4.6,38.42,38.42,0,0,1,3.26-2.17C234.46,167.77,235.61,167.15,236.78,166.6Zm1.3,4.93a3.54,3.54,0,0,0-.65.21c-.41.16-.8.34-1.18.53-.76.39-1.49.83-2.21,1.29a18.51,18.51,0,0,0-2.07,1.51,17.25,17.25,0,0,0-1.78,1.85,33.77,33.77,0,0,0-2.91,4.16l1.63-1.93c.54-.65,1.09-1.28,1.66-1.89a24.27,24.27,0,0,1,1.81-1.71,17.43,17.43,0,0,1,2-1.43c.7-.46,1.41-.9,2.14-1.29a11.45,11.45,0,0,1,1.11-.55,2.17,2.17,0,0,1,1.1-.26,11,11,0,0,1,2.44.41c.82.18,1.63.4,2.46.57a20.94,20.94,0,0,0-4.88-1.49A3.22,3.22,0,0,0,238.08,171.53Zm1.61,7.17a3.18,3.18,0,0,0-1.11,0,3.11,3.11,0,0,0-.3.12l-.22.13-.44.25c-.29.17-.57.35-.85.53a17.53,17.53,0,0,0-5.61,5.66,30,30,0,0,1,6-5.11l.83-.53.42-.25.21-.12.15-.07a2.54,2.54,0,0,1,.88,0c.31,0,.63.09.95.15,1.27.26,2.55.63,3.84.95a23.91,23.91,0,0,0-3.72-1.45A6.9,6.9,0,0,0,239.69,178.7Z" style="fill:#9a4a4d"></path><path d="M162.52,164.29c9.25-.45,17.51,3.07,24.67,13.24s38.05,53.37,38.05,53.37l10.59-12.73s.81,10.45,6.75,16.56S254,238.8,254,238.8s-6.43,17-15.71,30.64-16.55,9.27-25,2.27S167.56,215,167.56,215Z" style="fill:#e0e0e0"></path><path d="M225.24,230.9c-6.82,9-12.5,20.74-8.83,33-7.8-16.23-.4-28.8,6.19-36.7Z" style="fill:#e0e0e0"></path></g><path d="M191.12,264.91v52.15l-66.5-31V172.65s29.81-9,41.18-2,20.77,24.44,23.49,34.21S191.12,243.67,191.12,264.91Z" style="fill:#e0e0e0"></path><g id="freepik--Bottom--inject-145"><path d="M65.18,271.59c-6.92,15.81-8.26,32-6.52,41.06S62,334.22,84.59,348.47c25.76,16.28,44.52,25.71,44.52,25.71l85.57-54.83-58.38-35.5Z" style="fill:currentColor"></path><path d="M65.18,271.59c-6.92,15.81-8.26,32-6.52,41.06S62,334.22,84.59,348.47c25.76,16.28,44.52,25.71,44.52,25.71l85.57-54.83-58.38-35.5Z" style="opacity:0.15"></path><path d="M86.84,330.89c-.71-.77-1.39-1.54-2-2.3,6.55-1.74,10.41-9.88,9.59-19.07-.47-5.27-1-11.24-.28-16.9L93,292.48c-.73,5.78-.19,11.82.28,17.14.82,9.27-3.09,16.77-9.28,18-12.56-15-10.6-29.63-4.49-49l-1.1-.35c-6.7,21.24-7.72,36.83,7.63,53.42,10.09,10.91,37.6,25.81,53.7,35.73l1.08-.69C124.71,356.83,97,341.81,86.84,330.89Z" style="opacity:0.35000000000000003"></path><path d="M157.05,299.76c-3.5,11.27-10.79,16.64-10.79,16.64,13.63,9.93,24.8,19.14,32.6,25.9l9.53-6.1-33.48-22.48C158.82,305.74,157.05,299.76,157.05,299.76Z" style="opacity:0.35000000000000003"></path></g><g id="freepik--Body--inject-145"><g id="freepik--Chest--inject-145"><path d="M142,165.74s-18.47,6.11-32.28,11.11c-5.57,2.71-18.54,13-29.58,36.17s-21.07,58-21.55,68.32c0,0,8.9,21.37,40.18,22.5,51.88,1.88,60-18.57,60-18.57v-23l11-17.07a27.26,27.26,0,0,0,19.48-19c4.21-14-1.39-31.28-16.51-56.21,0,0-3.54-4.7-9.15-5.45S142,165.74,142,165.74Z" style="fill:#455a64"></path><path d="M157.94,247.69c-5.44,5.92-26.69,9.32-38.66-4.92C121.14,254.79,146.24,263.87,157.94,247.69Z"></path></g><path d="M169.54,171.45c-.36.88-1.18,2.58-1,3.58.07.31,1,1,1.59,1.92,4.77,7.23,14.45,22.21,18,35.23,2,7.16,2.92,52.73,2.92,52.73,0-43,5.12-53.07-3.93-73.16s-15.71-25-15.71-25S169.92,170.54,169.54,171.45Z" style="fill:#f5f5f5"></path><g id="freepik--Head--inject-145"><path d="M208.34,133.41c-3.58,4.37-2.56,8.5-5.92,13-1.23,1.65-51.08,6.54-59.91,8.73a142.51,142.51,0,0,0-4.31-17.28c-3.19-9.78-3.85-19.27-1.54-25.95,2.65-7.69,8.17-9.65,10.69-9.28,1-6.48,9.4-14.32,24.55-15.37C202.15,85.19,225.54,112.49,208.34,133.41Z" style="fill:#263238"></path><path d="M173.81,127.33a82.13,82.13,0,0,0-.37-22.8c-.45-2.76-.4-5-1.66-7.61-3-6-5.74-11.69-12.3-14.6-4.06-1.8-9.06-2.13-12.77.31-2.43,1.58-4.15,4.21-6.83,5.33a14.53,14.53,0,0,1-5,.78c-5.6.23-11.59.83-15.87,4.45a13.75,13.75,0,0,0-4.53,12.89c.39,2,1.26,4.07.87,6.11-.45,2.34-2.42,4-4,5.8-3.49,3.92-5.4,10-2.55,14.4,1.17,1.83,3,3.12,4.46,4.73,1.65,1.81,2.37,3.61,1.54,5.82s-1.94,3.85-1.15,6.51c1.12,3.78,5.14,5.79,8.76,7.36a7.51,7.51,0,0,1,.74-10.25c-1.22,3.42.11,7.38,2.64,10a18.15,18.15,0,0,0,9.62,4.71,31.28,31.28,0,0,0,34.56-17.7C172.24,138.47,173.16,132.88,173.81,127.33Z" style="fill:#263238"></path><path d="M204.78,114.81a7,7,0,0,1,3.27,4.3c2,7.28,1.71,10.45-2.14,20.92-1.15,3.14-.19,7.87-1.64,11.91-5.5,15.31-12.12,20.24-18.13,21.67-3.62.87-11.88-.12-16.51-2.11a14,14,0,0,0-.69,1.48c-.61,1.37-.27,2.15.13,2.58a6.42,6.42,0,0,1,1.3,1.83c2,4.5,6.78,18.29-8.32,18.35A31.2,31.2,0,0,1,141,187.26,34.92,34.92,0,0,1,131.79,175a2.94,2.94,0,0,1,.8-3.43c3.48-2.95,4.44-3.39,6.32-7.56a210.46,210.46,0,0,0,7.48-20.14c-1.19,1-8,2.48-10.25-4.62-2.95-9.42-.91-17.21,5.53-19,7.8-2.15,11.32,4.66,11.16,9.33s4.55,6.89,7.1,2c3.66-6.91,4.63-16.5,13.61-20.57,4.79-2.16,11.18-1.64,16.76,4.37a4.78,4.78,0,0,0,6.36.58C199.88,113.64,202.56,113.59,204.78,114.81Z" style="fill:#b16668"></path><path d="M198.77,128.63l6.13,4.48a3.65,3.65,0,0,0-.69-5.25A4,4,0,0,0,198.77,128.63Z" style="fill:#263238"></path><path d="M182.12,124.16l-7.07,2.75a3.64,3.64,0,0,1,2-4.89A4,4,0,0,1,182.12,124.16Z" style="fill:#263238"></path><path d="M196.22,138.24a3,3,0,0,0,2.31,3.43,2.79,2.79,0,0,0,3.37-2.2,3,3,0,0,0-2.31-3.43A2.79,2.79,0,0,0,196.22,138.24Z" style="fill:#263238"></path><path d="M174.6,134.48a3.13,3.13,0,0,0,1.86,3.93,2.94,2.94,0,0,0,3.84-1.77,3.12,3.12,0,0,0-1.86-3.92A2.92,2.92,0,0,0,174.6,134.48Z" style="fill:#263238"></path><path d="M177.4,154.9a2.12,2.12,0,0,0,1.25,2.64,2,2,0,0,0,2.58-1.19,2.09,2.09,0,0,0-1.25-2.63A2,2,0,0,0,177.4,154.9Z" style="fill:#9a4a4d"></path><polygon points="190.03 131.56 185.02 150.61 195.4 150.23 190.03 131.56" style="fill:#9a4a4d"></polygon><path d="M150.86,145.64s-3.29,11.17.93,17.18c5,7.11,13,10.52,16.86,11.83a2.93,2.93,0,0,1,.29-1.67,14,14,0,0,1,.69-1.48h0c-4-1.79-11.2-5.81-15.39-10.69C152,158.2,150.42,151.9,150.86,145.64Z" style="fill:#9a4a4d"></path><path d="M145.14,139.7a2.63,2.63,0,1,1-2.21-3A2.63,2.63,0,0,1,145.14,139.7Z" style="fill:currentColor"></path></g><path d="M138.11,165.64c-2,7.93,9.95,34.55,11.53,53.41s-1.15,29.1-7.36,48.3c-5.56,17.18-17.48,40.24-3.67,53.4s33.46,25.91,33.46,25.91l-43,27.52S113.64,368.11,91.72,354,61.65,334.1,55.91,313.23s2.66-44.24,9-63.84,17.4-58.24,45.56-72.91C123.27,171.34,138.11,165.64,138.11,165.64Z" style="fill:#f5f5f5"></path><path d="M144.7,223.06l-1.52.12c-3.07.24-6.13.48-9.19.75q-.45-5.67-1-11.3L132,200.38l-1.06-12.24c-.34-4.09-.67-8.17-.71-12.27a120.38,120.38,0,0,0-.16,12.31q.15,6.16.5,12.3c.42,8.2,1,16.38,1.66,24.54l.07,1,.95-.08q4.32-.33,8.62-.71-4.22,10.58-8.25,21.22l-.08.21,0,.19c.86,3.76,1.72,7.52,2.62,11.27s1.78,7.5,2.75,11.24c-.6-3.81-1.29-7.61-1.94-11.41s-1.33-7.45-2-11.17q4.69-11.1,9.2-22.27Z" style="fill:#e0e0e0"></path></g><polygon points="139.34 219.88 144.26 219.2 146.88 223.52 135.75 225.22 139.34 219.88" style="fill:currentColor"></polygon><path d="M139.34,219.88a25.17,25.17,0,0,0,1.29,4.59l-4.88.75Z" style="opacity:0.2"></path><path d="M144.26,219.2a39.49,39.49,0,0,1-1.83,5l4.45-.68Z" style="opacity:0.2"></path><path d="M134,238.43l-2.84,5.83c.45-.32,7.65-5.43,12.18-11,5-6.14,3.84-9.76,3.84-9.76l-2.94-4.26s-.74,6.58-4.67,11.31a41.54,41.54,0,0,1-7.77,7.25Z" style="fill:currentColor"></path><path d="M134,238.43l-2.84,5.83c.45-.32,7.65-5.43,12.18-11,5-6.14,3.84-9.76,3.84-9.76l-2.94-4.26s-.74,6.58-4.67,11.31a41.54,41.54,0,0,1-7.77,7.25Z" style="fill:currentColor"></path><path d="M144.59,231.53a21.9,21.9,0,0,1-3.27-3.58c-.12.2-.25.44-.39.65l-.21.33-.32.47a3.91,3.91,0,0,1-.3.41,7.32,7.32,0,0,1-.5.7c-.77.93-1.54,1.77-2.29,2.54l3.41,3.09c.92-.94,1.81-1.92,2.61-2.92C143.81,232.63,144.22,232.07,144.59,231.53Z" style="opacity:0.2"></path><path d="M133,242.06l1-3.63-2.85,5.83c.2-.14,1.69-1.19,3.68-2.81h0l.85-.7.1-.09.82-.69.16-.14.8-.7.18-.17.82-.73.14-.14c.29-.26.58-.53.86-.81l.07-.07a46.14,46.14,0,0,0,3.7-4,25,25,0,0,0,2-2.95C142.59,233.78,137.25,239.37,133,242.06Z" style="opacity:0.2"></path><path d="M135.43,225.27s-1.34,4.14,2.54,8.84c3.55,4.28,9.94,7.19,10.35,7.36l-2.71-5.53,3.37-1a19.18,19.18,0,0,1-6.55-4.91c-3.1-3.59-3.1-10.17-3.1-10.17Z" style="fill:currentColor"></path><path d="M138,234.11c-3.89-4.7-2.54-8.84-2.54-8.84a11.71,11.71,0,0,0,3.74,9.14,36.5,36.5,0,0,0,7.67,5.66l-1.23-4.13,2.72,5.54S141.63,238.53,138,234.11Z" style="opacity:0.2"></path></g><g id="freepik--Desk--inject-145"><polygon points="189.29 461.18 45.75 378.31 318.67 220.8 462.21 303.67 189.29 461.18" style="fill:currentColor"></polygon><polygon points="189.29 461.18 45.75 378.31 318.67 220.8 462.21 303.67 189.29 461.18" style="fill:#fff;opacity:0.8"></polygon><polygon points="45.75 378.31 45.75 388.67 189.29 471.54 189.29 461.18 45.75 378.31" style="fill:currentColor"></polygon><polygon points="45.75 378.31 45.75 388.67 189.29 471.54 189.29 461.18 45.75 378.31" style="fill:#fff;opacity:0.5"></polygon><polygon points="189.29 471.54 462.21 314.03 462.21 303.67 189.29 461.18 189.29 471.54" style="fill:currentColor"></polygon><polygon points="189.29 461.18 462.21 303.67 462.21 314.03 189.29 471.54 189.29 461.18" style="fill:#fff;opacity:0.65"></polygon></g><g id="freepik--Notebook--inject-145"><path id="freepik--shadow--inject-145" d="M287.83,249.68,245.75,274a.67.67,0,0,0,0,1.26l51.33,29.55a2.39,2.39,0,0,0,2.18,0l42.08-24.29a.67.67,0,0,0,0-1.26L290,249.68A2.39,2.39,0,0,0,287.83,249.68Z" style="fill:currentColor;opacity:0.2"></path><g id="freepik--notebook--inject-145"><path d="M286,251.83l-36.13,19-.74,1.16V273a1.36,1.36,0,0,0,.74,1.17l47.62,27.5a2.58,2.58,0,0,0,1.24.3,2.64,2.64,0,0,0,1.24-.3l35.32-20.4v-.94Z" style="fill:#263238"></path><path d="M298.72,301a2.58,2.58,0,0,1-1.24-.3l-47.62-27.5a1.36,1.36,0,0,1-.74-1.17,1.34,1.34,0,0,1,.74-1.16l34.54-20,50.88,29.38L300,300.69A2.64,2.64,0,0,1,298.72,301Z" style="fill:currentColor"></path><path d="M284.4,248.15l-34.15,19.72-.35.49V272h0a.59.59,0,0,0,.35.49L297.87,300a1.89,1.89,0,0,0,1.7,0l34.15-19.72v-3.66Z" style="fill:#ebebeb"></path><path d="M333.72,276.63l-.43.24-5.56,3.21-1,.6-27.13,15.66a1.89,1.89,0,0,1-1.7,0l-47.62-27.49a.52.52,0,0,1,0-1l.45-.27,33.7-19.45,48.9,28.23.1.06Z" style="fill:#f0f0f0"></path><path d="M298.72,296.55v3.66a1.78,1.78,0,0,1-.85-.2l-47.62-27.5a.59.59,0,0,1-.35-.49v-3.66a.62.62,0,0,0,.35.49l47.62,27.49A1.67,1.67,0,0,0,298.72,296.55Z" style="fill:#e0e0e0"></path><path d="M333.72,276.14l-6.15,3.55-1,.55-27,15.61a1.89,1.89,0,0,1-1.7,0l-42.64-24.62c-.39-.21-.74-.42-1.08-.62a10.42,10.42,0,0,1-3.45-3,.83.83,0,0,0-.08-.12.85.85,0,0,1-.11-.26.78.78,0,0,1,.6-.86,15,15,0,0,0,3.22-1.34l0,0,30-17.34Z" style="fill:#fff"></path><path d="M327.35,275.71a.49.49,0,0,0,0,.92,1.78,1.78,0,0,0,1.59,0c.44-.26.44-.67,0-.92A1.72,1.72,0,0,0,327.35,275.71Z" style="opacity:0.1"></path><path d="M332.44,272.74a2.07,2.07,0,0,0-2.13.15,6.64,6.64,0,0,0-2.68,3.85,1.65,1.65,0,0,0,.59.07,5.94,5.94,0,0,1,2.38-3.41,2,2,0,0,1,1-.3,1.13,1.13,0,0,1,.57.15,2.17,2.17,0,0,1,.8,2,3.71,3.71,0,0,1,0,.47l.56.32a5.35,5.35,0,0,0,.06-.79A2.71,2.71,0,0,0,332.44,272.74Z" style="fill:#263238"></path><path d="M333.42,276.31a.59.59,0,0,1,0,.13l-.1-.06Z" style="fill:#263238"></path><path d="M322.58,273a.49.49,0,0,0,0,.92,1.76,1.76,0,0,0,1.58,0,.49.49,0,0,0,0-.92A1.76,1.76,0,0,0,322.58,273Z" style="opacity:0.1"></path><path d="M327.67,270a2.09,2.09,0,0,0-2.13.15,6.63,6.63,0,0,0-2.68,3.85,1.41,1.41,0,0,0,.58.07,6,6,0,0,1,2.39-3.41,2,2,0,0,1,1-.3,1.17,1.17,0,0,1,.58.15,2.17,2.17,0,0,1,.8,2,3.59,3.59,0,0,1,0,.47l.56.32a5.25,5.25,0,0,0,.06-.79A2.72,2.72,0,0,0,327.67,270Z" style="fill:#263238"></path><path d="M317.81,270.2a.48.48,0,0,0,0,.91,1.7,1.7,0,0,0,1.58,0,.48.48,0,0,0,0-.91A1.7,1.7,0,0,0,317.81,270.2Z" style="opacity:0.1"></path><path d="M322.9,267.23a2.09,2.09,0,0,0-2.13.14,6.65,6.65,0,0,0-2.68,3.86,1.6,1.6,0,0,0,.58.07,6,6,0,0,1,2.39-3.42,2,2,0,0,1,1-.29,1.2,1.2,0,0,1,.57.14,2.2,2.2,0,0,1,.81,2,3.83,3.83,0,0,1,0,.47l.55.32a5.35,5.35,0,0,0,.06-.79A2.72,2.72,0,0,0,322.9,267.23Z" style="fill:#263238"></path><path d="M313,267.44a.49.49,0,0,0,0,.92,1.76,1.76,0,0,0,1.58,0,.49.49,0,0,0,0-.92A1.76,1.76,0,0,0,313,267.44Z" style="opacity:0.1"></path><path d="M318.12,264.47a2.09,2.09,0,0,0-2.13.15,6.66,6.66,0,0,0-2.67,3.85,1.41,1.41,0,0,0,.58.07,5.9,5.9,0,0,1,2.39-3.41,1.94,1.94,0,0,1,1-.3,1.1,1.1,0,0,1,.57.15,2.17,2.17,0,0,1,.8,2,3.62,3.62,0,0,1,0,.47l.55.32a5.25,5.25,0,0,0,.06-.79A2.72,2.72,0,0,0,318.12,264.47Z" style="fill:#263238"></path><path d="M308.26,264.68a.49.49,0,0,0,0,.92,1.72,1.72,0,0,0,1.59,0c.44-.25.44-.66,0-.92A1.78,1.78,0,0,0,308.26,264.68Z" style="opacity:0.1"></path><path d="M313.35,261.72a2.09,2.09,0,0,0-2.13.14,6.69,6.69,0,0,0-2.68,3.86,1.65,1.65,0,0,0,.59.07,6,6,0,0,1,2.38-3.42,2.09,2.09,0,0,1,1-.29,1.23,1.23,0,0,1,.57.14,2.2,2.2,0,0,1,.8,2,3.83,3.83,0,0,1,0,.47l.56.32a5.35,5.35,0,0,0,.06-.79A2.71,2.71,0,0,0,313.35,261.72Z" style="fill:#263238"></path><path d="M303.49,261.93c-.44.25-.44.66,0,.92a1.76,1.76,0,0,0,1.58,0c.44-.26.44-.67,0-.92A1.76,1.76,0,0,0,303.49,261.93Z" style="opacity:0.1"></path><path d="M308.58,259a2.09,2.09,0,0,0-2.13.15,6.59,6.59,0,0,0-2.68,3.85,1.6,1.6,0,0,0,.58.07,6,6,0,0,1,2.39-3.41,2,2,0,0,1,1-.3,1.1,1.1,0,0,1,.57.15,2.17,2.17,0,0,1,.81,2,3.71,3.71,0,0,1,0,.47l.56.32a7,7,0,0,0,.05-.79A2.7,2.7,0,0,0,308.58,259Z" style="fill:#263238"></path><path d="M298.72,259.17c-.44.26-.44.67,0,.92a1.7,1.7,0,0,0,1.58,0c.44-.25.44-.66,0-.92A1.76,1.76,0,0,0,298.72,259.17Z" style="opacity:0.1"></path><path d="M303.81,256.2a2.12,2.12,0,0,0-2.13.15,6.65,6.65,0,0,0-2.68,3.86,1.6,1.6,0,0,0,.58.07,6,6,0,0,1,2.39-3.42,2,2,0,0,1,1-.3,1.21,1.21,0,0,1,.57.15,2.19,2.19,0,0,1,.8,2,3.77,3.77,0,0,1,0,.47l.55.32a5.46,5.46,0,0,0,.06-.79A2.75,2.75,0,0,0,303.81,256.2Z" style="fill:#263238"></path><path d="M293.94,256.42a.49.49,0,0,0,0,.92,1.78,1.78,0,0,0,1.59,0c.44-.26.44-.67,0-.92A1.72,1.72,0,0,0,293.94,256.42Z" style="opacity:0.1"></path><path d="M299,253.45a2.09,2.09,0,0,0-2.13.15,6.64,6.64,0,0,0-2.68,3.85,1.65,1.65,0,0,0,.59.07,5.9,5.9,0,0,1,2.39-3.41,1.94,1.94,0,0,1,1-.3,1.13,1.13,0,0,1,.57.15,2.17,2.17,0,0,1,.8,2,3.71,3.71,0,0,1,0,.47l.56.32a5.25,5.25,0,0,0,.06-.79A2.71,2.71,0,0,0,299,253.45Z" style="fill:#263238"></path><path d="M289.17,253.66a.49.49,0,0,0,0,.92,1.78,1.78,0,0,0,1.59,0,.49.49,0,0,0,0-.92A1.78,1.78,0,0,0,289.17,253.66Z" style="opacity:0.1"></path><path d="M294.26,250.69a2.09,2.09,0,0,0-2.13.15,6.69,6.69,0,0,0-2.68,3.86,1.88,1.88,0,0,0,.58.07,6,6,0,0,1,2.39-3.42,2,2,0,0,1,1-.3,1.16,1.16,0,0,1,.57.15,2.18,2.18,0,0,1,.8,2,3.59,3.59,0,0,1,0,.47l.56.33a5.49,5.49,0,0,0,.06-.8A2.73,2.73,0,0,0,294.26,250.69Z" style="fill:#263238"></path><path d="M284.4,250.91c-.44.25-.44.66,0,.92a1.76,1.76,0,0,0,1.58,0c.44-.26.44-.67,0-.92A1.7,1.7,0,0,0,284.4,250.91Z" style="opacity:0.1"></path><path d="M289.49,247.94a2.07,2.07,0,0,0-2.13.15,6.59,6.59,0,0,0-2.68,3.85,1.6,1.6,0,0,0,.58.07,6,6,0,0,1,2.39-3.41,2,2,0,0,1,1-.3,1.1,1.1,0,0,1,.57.15,2.17,2.17,0,0,1,.81,2,3.71,3.71,0,0,1,0,.47l.56.32a7.13,7.13,0,0,0,.05-.79A2.72,2.72,0,0,0,289.49,247.94Z" style="fill:#263238"></path><path d="M294,290.94a.55.55,0,0,1-.47-.27.53.53,0,0,1,.2-.73L320,274.77a.54.54,0,0,1,.73.19.55.55,0,0,1-.19.74l-26.28,15.17A.48.48,0,0,1,294,290.94Z" style="fill:#ebebeb"></path><path d="M290.76,289.1a.52.52,0,0,1-.46-.27.53.53,0,0,1,.2-.73l26.27-15.17a.54.54,0,0,1,.73.2.54.54,0,0,1-.19.73L291,289A.5.5,0,0,1,290.76,289.1Z" style="fill:#ebebeb"></path><path d="M287.58,287.27a.54.54,0,0,1-.27-1l26.28-15.17a.54.54,0,0,1,.73.2.53.53,0,0,1-.2.73l-26.27,15.17A.53.53,0,0,1,287.58,287.27Z" style="fill:#ebebeb"></path><path d="M284.4,285.43a.55.55,0,0,1-.47-.27.54.54,0,0,1,.2-.73l26.27-15.17a.54.54,0,1,1,.54.93l-26.27,15.17A.54.54,0,0,1,284.4,285.43Z" style="fill:#ebebeb"></path><path d="M281.22,283.59a.55.55,0,0,1-.47-.27.53.53,0,0,1,.2-.73l26.27-15.17a.54.54,0,1,1,.54.93l-26.27,15.17A.54.54,0,0,1,281.22,283.59Z" style="fill:#ebebeb"></path><path d="M278,281.76a.54.54,0,0,1-.27-1L304,265.58a.54.54,0,0,1,.54.93l-26.27,15.17A.56.56,0,0,1,278,281.76Z" style="fill:#ebebeb"></path><path d="M274.85,279.92a.54.54,0,0,1-.27-1l26.28-15.17a.54.54,0,0,1,.73.2.55.55,0,0,1-.19.74l-26.28,15.16A.53.53,0,0,1,274.85,279.92Z" style="fill:#ebebeb"></path><path d="M271.67,278.08a.56.56,0,0,1-.47-.27.54.54,0,0,1,.2-.73l26.28-15.17a.54.54,0,1,1,.53.93L271.94,278A.52.52,0,0,1,271.67,278.08Z" style="fill:#ebebeb"></path><path d="M268.49,276.24A.53.53,0,0,1,268,276a.54.54,0,0,1,.2-.73l26.27-15.17a.54.54,0,0,1,.74.2.53.53,0,0,1-.2.73l-26.27,15.17A.54.54,0,0,1,268.49,276.24Z" style="fill:#ebebeb"></path><path d="M265.31,274.41a.54.54,0,0,1-.27-1l26.27-15.17a.55.55,0,0,1,.74.2.54.54,0,0,1-.2.73l-26.27,15.17A.56.56,0,0,1,265.31,274.41Z" style="fill:#ebebeb"></path><path d="M262.12,272.57a.54.54,0,0,1-.46-.27.53.53,0,0,1,.2-.73l26.27-15.17a.53.53,0,0,1,.73.19.55.55,0,0,1-.19.74L262.39,272.5A.5.5,0,0,1,262.12,272.57Z" style="fill:#ebebeb"></path><path d="M258.94,270.73a.54.54,0,0,1-.46-.27.54.54,0,0,1,.19-.73L285,254.56a.53.53,0,0,1,.73.2.54.54,0,0,1-.19.73l-26.28,15.17A.52.52,0,0,1,258.94,270.73Z" style="fill:#ebebeb"></path><path d="M255.76,268.9a.53.53,0,0,1-.46-.27.55.55,0,0,1,.19-.74l26.27-15.17a.54.54,0,0,1,.74.2.53.53,0,0,1-.2.73L256,268.82A.53.53,0,0,1,255.76,268.9Z" style="fill:#ebebeb"></path><path d="M297.18,292.78a.54.54,0,0,1-.27-1L324.7,275.7a.54.54,0,1,1,.53.93l-27.78,16.08A.68.68,0,0,1,297.18,292.78Z" style="fill:currentColor"></path><g style="opacity:0.25"><path d="M311.07,272.81a2.29,2.29,0,0,0-1.08-.69l-.52-.27c-.24-.39-.56-1-.13-1.1.25-.05.74.22,1,.3s.12-.18,0-.22c-.47-.18-1.37-.77-1.56,0a1.22,1.22,0,0,0,.11.73,1.55,1.55,0,0,0-.69-.12c-.22,0-.41,0-.49.28s0,.2,0,.31a.28.28,0,0,0,.22.23l-.25,0c-.33,0-1.23-.23-1.44.18-.09.17.11.41.08.47s-.66.25-.77.32,0,.21-.05.22a7.29,7.29,0,0,1-.95,0c-.53,0-1.83-.15-1.66.66,0,.09.09.07.11.21a.8.8,0,0,0,0,.2s0,0-.12.11-.23,0-.29.13c-.25.31.13.42-.18.61s-1.35-.28-1.8,0,.12,1.06-.58,1.07c-.15,0-.06.23.06.25.65.05.58-.07.7-.61.21-.87,1.51-.27,2.24-.47.09,0,.09-.13.05-.19-.19-.31,0-.48.32-.61a.13.13,0,0,0,.06-.19c-.08-.15-.36-.58-.19-.79a5.78,5.78,0,0,1,.78-.09c.56,0,1.13-.05,1.7,0a.12.12,0,0,0,.11-.16c-.09-.18.65-.3.81-.33a.11.11,0,0,0,.07-.16c-.35-.87.95-.55,1.48-.46a.13.13,0,0,0,.15-.17c-.08-.29-.73-.59,0-.7a1.38,1.38,0,0,1,.59.14,4.07,4.07,0,0,0,1.34,1.39C310.94,273.58,311.46,273.4,311.07,272.81Zm-.24.15c.16.22-.35,0-.41,0a1.86,1.86,0,0,1-.67-.72l.4.21A1.65,1.65,0,0,1,310.83,273Z"></path><path d="M297.93,278.34c-.1-.38-.11-.79.24-.84.17,0,.05-.25-.08-.26-.47,0-.62.4-.56.9a2.57,2.57,0,0,0-.59-.2c-.31-.06-.51-.07-.61.24s.09.32.08.48.23.15-.14.25a2.28,2.28,0,0,1-.44-.05.68.68,0,0,0-.64.2c-.23.2.35.29-.34.18a1.6,1.6,0,0,0-.54-.07c-.25.06-.38.13-.34.41,0,.12.29.29.29.37,0,.6-.66.09-.91,0a.11.11,0,0,0-.15.1c0,.29.2.4-.24.43,0,0-.35-.17-.44-.17-.28,0-.54.36-.9.33a.12.12,0,0,0-.11.17c.1.27.25.43-.3.67l-.63-.08c-.16,0-.06.25.07.26s1.09.38,1.35,0-.18-.54-.09-.7c-.06.11.48-.15.54-.17a1.43,1.43,0,0,1,.43-.11c.07,0,.14.12.22.12s.22.05.31,0,.12-.18.16-.21-.13-.14.06-.2.26.09.39.13.52.22.69,0-.19-.48-.15-.67c.09-.43.7-.11,1-.3a.1.1,0,0,0,0-.13c-.17-.59.91-.13,1.25-.19a.12.12,0,0,0,.11-.13,3.85,3.85,0,0,0-.13-.37c.09-.36.58-.32.8-.26.22.73.79,1.46,1.42,1.26a.11.11,0,0,0,.08-.11C299.07,279.17,298.51,278.68,297.93,278.34Zm.22.6-.08-.17a1.36,1.36,0,0,1,.44.43C298.63,279.56,298.21,279,298.15,278.94Z"></path><path d="M307.47,282.22a2.26,2.26,0,0,0-1.07-.69l-.52-.26c-.24-.39-.56-1-.14-1.1a2.89,2.89,0,0,1,1,.3c.16,0,.12-.18,0-.23-.46-.18-1.36-.76-1.55,0a1.23,1.23,0,0,0,.11.73,1.59,1.59,0,0,0-.69-.13c-.22,0-.41,0-.49.29s0,.2,0,.31a.26.26,0,0,0,.22.22l-.25,0c-.33,0-1.24-.23-1.45.18-.08.17.12.41.09.47s-.66.25-.77.32,0,.21,0,.23a7.64,7.64,0,0,1-1,0c-.52.05-1.82-.15-1.65.66,0,.09.09.08.1.22s0,.17,0,.2-.05,0-.12.11-.23,0-.29.12c-.25.31.13.42-.18.62s-1.35-.28-1.8,0,.12,1.06-.58,1.08c-.15,0-.06.23.05.24.66.06.59-.07.71-.6.21-.87,1.51-.27,2.24-.47a.14.14,0,0,0,.05-.2c-.19-.3,0-.48.32-.61a.13.13,0,0,0,.06-.19c-.08-.14-.36-.58-.19-.78a3.62,3.62,0,0,1,.77-.09,16.12,16.12,0,0,1,1.7,0c.08,0,.15-.09.11-.16s.66-.3.82-.34.09-.1.07-.15c-.35-.88.94-.55,1.48-.47a.12.12,0,0,0,.15-.16c-.09-.3-.73-.59,0-.7a1.2,1.2,0,0,1,.59.14,4,4,0,0,0,1.35,1.38C307.35,283,307.86,282.81,307.47,282.22Zm-.23.16c.16.21-.35,0-.41,0a1.89,1.89,0,0,1-.68-.72,4.09,4.09,0,0,0,.4.21A1.64,1.64,0,0,1,307.24,282.38Z"></path><path d="M315.55,275.54c-.1-.38-.11-.79.24-.84.17,0,0-.25-.07-.25-.48,0-.63.39-.57.89a2.57,2.57,0,0,0-.59-.2c-.31-.06-.51-.07-.61.25s.09.31.08.48.23.14-.14.24a2.25,2.25,0,0,1-.44,0c-.37,0-.41,0-.63.2s.34.29-.35.18a1.37,1.37,0,0,0-.53-.08c-.26.06-.39.13-.35.41s.29.29.29.37c0,.61-.66.1-.9,0a.12.12,0,0,0-.16.1c0,.3.2.4-.23.43-.06,0-.35-.16-.45-.17-.28,0-.54.37-.9.34-.1,0-.13.08-.1.16.1.27.24.44-.3.67,0,0-.65-.08-.64-.08-.15,0-.05.26.07.27s1.1.37,1.35,0-.18-.54-.09-.7c-.06.1.48-.15.54-.17a1.8,1.8,0,0,1,.43-.12c.07,0,.14.12.22.12s.22.06.31,0,.12-.18.16-.2-.12-.15.07-.21.25.09.38.13.52.22.69,0-.19-.49-.15-.68c.09-.43.7-.1,1-.29a.14.14,0,0,0,0-.14c-.18-.59.9-.13,1.24-.19.06,0,.13,0,.12-.12s-.14-.37-.14-.38c.09-.35.58-.31.81-.25.21.72.79,1.45,1.41,1.26.05,0,.09-.06.08-.11C316.69,276.38,316.13,275.88,315.55,275.54Zm.22.6-.08-.17a1.47,1.47,0,0,1,.44.43C316.25,276.76,315.83,276.24,315.77,276.14Z"></path><path d="M291.66,262.08a2.24,2.24,0,0,0-1.08-.69l-.51-.26c-.25-.39-.57-1-.14-1.11a3.55,3.55,0,0,1,1,.3c.15.05.12-.18,0-.22-.47-.18-1.36-.76-1.56,0a1.26,1.26,0,0,0,.11.74,1.57,1.57,0,0,0-.69-.13c-.22,0-.41,0-.48.28s0,.21,0,.32a.28.28,0,0,0,.23.22l-.25,0c-.33,0-1.24-.23-1.45.18-.09.17.11.41.08.47s-.66.25-.77.32,0,.21,0,.23a7.65,7.65,0,0,1-1,0c-.53.05-1.83-.15-1.66.66,0,.09.09.08.11.22a.6.6,0,0,0,0,.19s-.06,0-.13.11-.22.05-.29.13c-.25.31.13.42-.18.62s-1.35-.29-1.79,0,.12,1.06-.58,1.08c-.16,0-.07.23,0,.24.65.06.58-.07.71-.6.2-.87,1.5-.27,2.23-.48.09,0,.1-.12.06-.19-.2-.31,0-.48.32-.61a.13.13,0,0,0,.05-.19c-.08-.14-.36-.58-.19-.78a3.71,3.71,0,0,1,.78-.09,16.07,16.07,0,0,1,1.7,0,.12.12,0,0,0,.11-.16c-.08-.19.65-.3.82-.34a.11.11,0,0,0,.06-.15c-.35-.88.95-.56,1.48-.47a.13.13,0,0,0,.15-.17c-.08-.29-.73-.59,0-.69a1.24,1.24,0,0,1,.59.14,4.12,4.12,0,0,0,1.34,1.38C291.53,262.85,292.05,262.67,291.66,262.08Zm-.24.16c.16.21-.34,0-.41,0a1.94,1.94,0,0,1-.67-.72l.4.21A1.53,1.53,0,0,1,291.42,262.24Z"></path><path d="M278.52,267.61c-.1-.38-.11-.79.24-.84.17,0,.05-.25-.07-.25-.48,0-.63.39-.57.89a2.57,2.57,0,0,0-.59-.2c-.31-.06-.51-.07-.61.25s.09.31.08.48.23.14-.14.24a2.25,2.25,0,0,1-.44,0c-.37,0-.41,0-.64.2s.35.29-.34.18a1.37,1.37,0,0,0-.53-.08c-.26.06-.39.13-.35.41,0,.13.29.29.29.37,0,.61-.66.09-.9,0a.12.12,0,0,0-.16.1c0,.3.2.4-.23.43-.06,0-.36-.17-.45-.17-.28,0-.54.37-.9.34-.1,0-.13.08-.1.16.1.27.24.44-.3.67,0,0-.65-.08-.64-.08-.16,0-.05.26.07.27s1.1.37,1.35,0-.18-.54-.09-.7c-.06.1.48-.15.54-.17a1.8,1.8,0,0,1,.43-.12c.07,0,.14.12.22.12s.22.05.31,0,.12-.18.16-.21-.12-.14.07-.2.25.09.38.13.52.22.69,0-.19-.49-.15-.68c.09-.43.7-.1,1-.3a.12.12,0,0,0,0-.13c-.18-.59.9-.13,1.24-.19.06,0,.13,0,.12-.12s-.14-.37-.14-.38c.09-.35.58-.31.8-.25.22.72.8,1.45,1.42,1.25a.09.09,0,0,0,.08-.1C279.66,268.44,279.1,268,278.52,267.61Zm.22.6-.08-.17a1.36,1.36,0,0,1,.44.43C279.22,268.83,278.8,268.31,278.74,268.21Z"></path><path d="M288.07,271.49a2.42,2.42,0,0,0-1.08-.69l-.52-.26c-.24-.39-.56-1-.14-1.1.26-.05.75.22,1,.3s.12-.18,0-.22c-.47-.19-1.37-.77-1.56,0a1.23,1.23,0,0,0,.11.73,1.59,1.59,0,0,0-.69-.13c-.22,0-.41,0-.49.29s0,.2,0,.31.18.21.22.23a.83.83,0,0,0-.25,0c-.33,0-1.23-.24-1.44.18-.09.17.11.4.08.47s-.66.24-.77.31,0,.21-.05.23a7.32,7.32,0,0,1-.95,0c-.53,0-1.83-.16-1.66.65,0,.09.09.08.1.22a1.57,1.57,0,0,0,0,.2s0,0-.12.11-.23,0-.29.12c-.25.32.13.43-.18.62s-1.35-.28-1.8,0,.12,1.06-.58,1.07c-.15,0-.06.23.05.24.66.06.59-.06.71-.6.21-.87,1.51-.27,2.24-.47.08,0,.09-.13.05-.19-.19-.31,0-.48.32-.62a.13.13,0,0,0,.06-.19c-.08-.14-.36-.57-.19-.78a4.52,4.52,0,0,1,.78-.09,16,16,0,0,1,1.7,0,.12.12,0,0,0,.11-.16c-.09-.18.65-.3.81-.34a.11.11,0,0,0,.07-.15c-.35-.87.94-.55,1.48-.47a.12.12,0,0,0,.15-.16c-.08-.3-.73-.59,0-.7a1.24,1.24,0,0,1,.59.14,4.07,4.07,0,0,0,1.34,1.39C287.94,272.26,288.46,272.09,288.07,271.49Zm-.24.16c.16.22-.35,0-.41,0a1.83,1.83,0,0,1-.67-.71l.4.21A1.57,1.57,0,0,1,287.83,271.65Z"></path><path d="M296.14,264.82c-.09-.38-.11-.8.25-.84.17,0,0-.26-.08-.26-.48,0-.63.4-.56.89a2.73,2.73,0,0,0-.59-.2c-.31-.05-.51-.06-.61.25s.09.31.07.48.24.15-.14.24a2.22,2.22,0,0,1-.43,0,.65.65,0,0,0-.64.2c-.24.2.34.29-.34.18a1.45,1.45,0,0,0-.54-.08c-.26.06-.39.13-.35.41,0,.13.29.3.29.38,0,.6-.65.09-.9,0a.11.11,0,0,0-.16.09c0,.3.2.41-.23.43-.05,0-.35-.16-.45-.16-.28,0-.53.36-.9.33-.1,0-.13.08-.1.16.1.27.25.44-.3.67,0,0-.65-.08-.63-.07-.16,0-.06.25.06.26s1.1.38,1.35,0-.18-.54-.09-.7c-.06.1.49-.15.55-.17a1.86,1.86,0,0,1,.42-.12c.08,0,.14.13.22.13s.22.05.32,0,.12-.18.15-.2-.12-.14.07-.21.26.09.39.13.51.22.69,0-.19-.48-.16-.68c.09-.43.71-.1,1-.29a.13.13,0,0,0,0-.13c-.18-.6.9-.13,1.24-.2.06,0,.13-.05.12-.12s-.14-.37-.13-.37c.08-.36.57-.32.8-.26.22.72.79,1.45,1.42,1.26a.11.11,0,0,0,.07-.11C297.28,265.65,296.72,265.15,296.14,264.82Zm.23.59a1.22,1.22,0,0,1-.09-.17,1.47,1.47,0,0,1,.44.44C296.85,266,296.43,265.51,296.37,265.41Z"></path><path d="M290.06,278a2.34,2.34,0,0,0-1.07-.69c-.16-.07-.34-.17-.52-.26-.24-.39-.57-1-.14-1.1a3,3,0,0,1,1,.3c.16,0,.12-.18,0-.23-.47-.18-1.36-.76-1.55,0a1.09,1.09,0,0,0,.11.73,1.62,1.62,0,0,0-.69-.13c-.23,0-.41,0-.49.29s0,.2,0,.31a.26.26,0,0,0,.22.22h-.25c-.33,0-1.24-.24-1.45.17-.09.17.11.41.08.47s-.65.25-.77.32,0,.21,0,.23a7.48,7.48,0,0,1-1,0c-.52,0-1.83-.16-1.66.65,0,.09.09.08.11.22a.71.71,0,0,0,0,.2s-.06,0-.13.11-.22,0-.29.12c-.25.31.14.42-.18.62s-1.35-.28-1.79,0,.12,1.07-.58,1.08c-.16,0-.07.23.05.24.65.06.58-.07.71-.6.2-.87,1.5-.27,2.24-.47a.13.13,0,0,0,.05-.19c-.19-.31,0-.48.32-.62a.13.13,0,0,0,.05-.19c-.08-.14-.35-.58-.18-.78a3.62,3.62,0,0,1,.77-.09,16.07,16.07,0,0,1,1.7,0,.12.12,0,0,0,.11-.16c-.08-.18.65-.3.82-.34s.09-.1.07-.15c-.35-.87.94-.55,1.48-.47a.13.13,0,0,0,.15-.16c-.09-.3-.74-.59,0-.7a1.22,1.22,0,0,1,.59.14,4.18,4.18,0,0,0,1.35,1.39C289.94,278.74,290.45,278.57,290.06,278Zm-.24.16c.16.21-.34,0-.4,0a1.89,1.89,0,0,1-.68-.72l.4.22A1.46,1.46,0,0,1,289.82,278.13Z"></path><path d="M296.46,271.89c-.1-.38-.11-.8.24-.84.17,0,.05-.26-.08-.26-.47,0-.62.4-.56.89a3.16,3.16,0,0,0-.59-.2c-.31-.05-.51-.06-.61.25s.09.31.08.48.23.15-.14.24a2.25,2.25,0,0,1-.44,0,.66.66,0,0,0-.64.2c-.23.2.35.29-.34.18a1.39,1.39,0,0,0-.54-.08c-.25.06-.38.13-.34.41,0,.13.29.3.29.38,0,.6-.66.09-.9,0a.12.12,0,0,0-.16.09c0,.3.2.41-.23.43-.06,0-.36-.16-.45-.16-.28,0-.54.36-.9.33-.1,0-.13.08-.1.16.1.27.24.44-.31.68l-.64-.08c-.15,0,0,.25.08.26s1.1.38,1.35,0-.18-.54-.09-.7c-.06.1.48-.15.54-.17a1.8,1.8,0,0,1,.43-.12c.07,0,.14.13.22.13s.22.05.31,0,.12-.18.16-.2-.12-.14.07-.21.25.09.38.13.52.22.69,0-.19-.48-.15-.68c.09-.43.7-.1,1-.29a.11.11,0,0,0,0-.13c-.17-.6.91-.13,1.25-.2a.13.13,0,0,0,.12-.12c0-.05-.14-.37-.14-.37.09-.36.58-.32.8-.26.22.72.8,1.45,1.42,1.26.05,0,.09-.06.08-.11C297.6,272.72,297,272.22,296.46,271.89Zm.22.59a1.44,1.44,0,0,1-.08-.17,1.47,1.47,0,0,1,.44.44C297.16,273.11,296.74,272.58,296.68,272.48Z"></path><path d="M303.78,267a.38.38,0,0,0,0-.15c-.1-.37-.53-.09-.6.14s.09.31.07.48.24.14-.14.24a2.22,2.22,0,0,1-.43,0c-.38,0-.41,0-.64.2s.34.29-.34.18a1.45,1.45,0,0,0-.54-.08c-.25.06-.39.13-.35.41s.29.29.29.37c0,.61-.65.1-.9,0a.12.12,0,0,0-.16.1c0,.3.2.4-.23.43-.05,0-.35-.16-.45-.17-.28,0-.53.37-.9.34-.1,0-.13.08-.1.16.1.27.25.44-.3.67,0,0-.65-.08-.65-.08s0,.26.08.27,1.1.37,1.35,0-.18-.54-.09-.7c-.06.1.49-.15.55-.17a1.86,1.86,0,0,1,.42-.12c.08,0,.14.12.22.12s.22.06.32,0,.12-.18.15-.2-.12-.15.07-.21.26.09.39.13.51.22.69,0-.19-.49-.15-.68c.08-.43.7-.1,1-.29a.14.14,0,0,0,0-.14c-.17-.59.9-.13,1.24-.19.06,0,.13,0,.12-.12a2,2,0,0,1-.05-.77A1,1,0,0,0,303.78,267Z"></path></g></g></g><g id="freepik--Microscope--inject-145"><path id="freepik--shadow--inject-145" d="M208.58,302.06l-52.71,30.43a.84.84,0,0,0,0,1.58l82.56,47.66a3,3,0,0,0,2.72,0l52.71-30.43a.84.84,0,0,0,0-1.58L211.3,302.06A3,3,0,0,0,208.58,302.06Z" style="fill:currentColor;opacity:0.30000000000000004"></path><g id="freepik--microscope--inject-145"><path d="M240,243.09c1.34-.83,3.21-.74,5.28.46a12.46,12.46,0,0,1,3.14,2.63,10.28,10.28,0,0,1,.67.81l0,0a17.88,17.88,0,0,1,2.76,5.14,12.8,12.8,0,0,1,.71,4.05c0,2.28-.78,3.89-2.05,4.68l-2.44,1.41a3.42,3.42,0,0,0,1-.91,6.21,6.21,0,0,0,1.06-3.77A16.2,16.2,0,0,0,242.82,245,6.17,6.17,0,0,0,239,244a3.38,3.38,0,0,0-1.41.48h0Z" style="fill:currentColor"></path><path d="M240,243.09c1.34-.83,3.21-.74,5.28.46a12.46,12.46,0,0,1,3.14,2.63,10.28,10.28,0,0,1,.67.81l0,0a17.88,17.88,0,0,1,2.76,5.14,12.8,12.8,0,0,1,.71,4.05c0,2.28-.78,3.89-2.05,4.68l-2.44,1.41a3.42,3.42,0,0,0,1-.91,6.21,6.21,0,0,0,1.06-3.77A16.2,16.2,0,0,0,242.82,245,6.17,6.17,0,0,0,239,244a3.38,3.38,0,0,0-1.41.48h0Z" style="fill:#fff;opacity:0.7000000000000001"></path><path d="M237.59,244.48A3.38,3.38,0,0,1,239,244a6.17,6.17,0,0,1,3.82.95,16.2,16.2,0,0,1,7.32,12.68,6.21,6.21,0,0,1-1.06,3.77,3.42,3.42,0,0,1-1,.91l-.12.07a3.81,3.81,0,0,1-2,.47,6.66,6.66,0,0,1-3.14-1,16.16,16.16,0,0,1-7.32-12.67C235.5,246.88,236.3,245.25,237.59,244.48Z" style="fill:currentColor"></path><path d="M237.59,244.48A3.38,3.38,0,0,1,239,244a6.17,6.17,0,0,1,3.82.95,16.2,16.2,0,0,1,7.32,12.68,6.21,6.21,0,0,1-1.06,3.77,3.42,3.42,0,0,1-1,.91l-.12.07a3.81,3.81,0,0,1-2,.47,6.66,6.66,0,0,1-3.14-1,16.16,16.16,0,0,1-7.32-12.67C235.5,246.88,236.3,245.25,237.59,244.48Z" style="fill:#fff;opacity:0.6000000000000001"></path><path d="M242.82,250c-1.63-.94-2.95-.18-2.95,1.7a6.52,6.52,0,0,0,2.95,5.11c1.63.94,3,.18,3-1.7A6.52,6.52,0,0,0,242.82,250Z" style="fill:#455a64"></path><path d="M199.62,276.41V255l-11.42,0v21.4h0a2.84,2.84,0,0,0,1.68,2.33,8.9,8.9,0,0,0,8.07,0A2.82,2.82,0,0,0,199.62,276.41Z" style="fill:#263238"></path><path d="M188.21,273a2.85,2.85,0,0,0,1.68,2.33,8.93,8.93,0,0,0,8.07,0,2.82,2.82,0,0,0,1.66-2.34v3.43a2.82,2.82,0,0,1-1.66,2.33,8.9,8.9,0,0,1-8.07,0,2.84,2.84,0,0,1-1.68-2.33h0V273Z" style="fill:currentColor"></path><path d="M188.21,273a2.85,2.85,0,0,0,1.68,2.33,8.93,8.93,0,0,0,8.07,0,2.82,2.82,0,0,0,1.66-2.34v3.43a2.82,2.82,0,0,1-1.66,2.33,8.9,8.9,0,0,1-8.07,0,2.84,2.84,0,0,1-1.68-2.33h0V273Z" style="fill:#fff;opacity:0.6000000000000001"></path><path d="M213.28,276.41V255l11.42,0v21.4h0a2.84,2.84,0,0,1-1.68,2.33,8.9,8.9,0,0,1-8.07,0A2.82,2.82,0,0,1,213.28,276.41Z" style="fill:#263238"></path><path d="M224.69,273a2.85,2.85,0,0,1-1.68,2.33,8.93,8.93,0,0,1-8.07,0,2.82,2.82,0,0,1-1.66-2.34v3.43a2.82,2.82,0,0,0,1.66,2.33,8.9,8.9,0,0,0,8.07,0,2.84,2.84,0,0,0,1.68-2.33h0V273Z" style="fill:currentColor"></path><path d="M224.69,273a2.85,2.85,0,0,1-1.68,2.33,8.93,8.93,0,0,1-8.07,0,2.82,2.82,0,0,1-1.66-2.34v3.43a2.82,2.82,0,0,0,1.66,2.33,8.9,8.9,0,0,0,8.07,0,2.84,2.84,0,0,0,1.68-2.33h0V273Z" style="opacity:0.15"></path><path d="M212.17,283.64V262.23l-11.42,0v21.4h0a2.82,2.82,0,0,0,1.68,2.33,8.9,8.9,0,0,0,8.07,0A2.81,2.81,0,0,0,212.17,283.64Z" style="fill:#37474f"></path><path d="M200.76,280.25a2.82,2.82,0,0,0,1.68,2.33,8.9,8.9,0,0,0,8.07,0,2.82,2.82,0,0,0,1.66-2.33v3.42a2.81,2.81,0,0,1-1.66,2.33,8.9,8.9,0,0,1-8.07,0,2.82,2.82,0,0,1-1.68-2.33h0v-3.42Z" style="fill:currentColor"></path><path d="M187.13,251.21c-.23,2.92,1.59,5.88,5.44,8.12l13.2,7.63c7.3,4.24,19.14,4.28,26.47.08,3.64-2.09,5.47-4.83,5.5-7.59,0-1.38,0-3.68,0-6v-14a6.83,6.83,0,0,0-1.05-3.57A8.37,8.37,0,0,0,229,232l-.63,0a46,46,0,0,1-14.66-1.66c-6.91-1.87-15.4-1.18-21.11,2.1-3.67,2.1-5.5,4.87-5.5,7.65,0,4.3,0,6.57,0,9,0,.15,0,.3,0,.45Z" style="fill:#37474f"></path><path d="M187.12,240.15a6.81,6.81,0,0,0,1,3.56,8.35,8.35,0,0,0,7.67,3.88l.63,0a46,46,0,0,1,14.66,1.65c6.91,1.87,15.4,1.18,21.12-2.1,3.66-2.1,5.5-4.86,5.5-7.64a6.83,6.83,0,0,0-1.05-3.57A8.37,8.37,0,0,0,229,232l-.63,0a46,46,0,0,1-14.66-1.66c-6.91-1.87-15.4-1.18-21.11,2.1C189,234.6,187.12,237.37,187.12,240.15Z" style="fill:#455a64"></path><polygon points="202.51 259.67 207.07 262.31 207.07 259.67 202.51 257.03 202.51 259.67" style="fill:currentColor"></polygon><path d="M232.23,264.76c-7.32,4.2-19.16,4.16-26.45-.08l-13.21-7.63c-3.65-2.12-5.46-4.89-5.46-7.66v2.29c0,2.76,1.81,5.53,5.46,7.65L205.78,267c7.29,4.24,19.13,4.28,26.45.08,3.65-2.09,5.49-4.83,5.51-7.59v-2.28C237.72,259.92,235.88,262.67,232.23,264.76Z" style="fill:currentColor"></path><path d="M200.32,239.37v-13l37.43.12v13h0c0,2.76-1.84,5.52-5.5,7.62-7.32,4.2-19.17,4.16-26.46-.08C202.12,244.91,200.31,242.14,200.32,239.37Z" style="fill:#37474f"></path><path d="M237.75,226.51l-37.43-.12s0,.13,0,2.89,1.81,5.54,5.46,7.66c7.29,4.24,19.14,4.27,26.46.08,3.66-2.1,5.49-4.86,5.5-7.62S237.75,226.51,237.75,226.51Z" style="fill:currentColor"></path><path d="M232.29,218.85c-7.3-4.24-19.14-4.28-26.46-.08s-7.34,11-.05,15.28,19.14,4.28,26.46.08S239.58,223.09,232.29,218.85Z" style="fill:currentColor"></path><path d="M232.29,218.85c-7.3-4.24-19.14-4.28-26.46-.08s-7.34,11-.05,15.28,19.14,4.28,26.46.08S239.58,223.09,232.29,218.85Z" style="fill:#fff;opacity:0.5"></path><path d="M210.94,225.36V202.12l16.17,0v23.24h0c0,1.19-.8,2.38-2.38,3.29a12.65,12.65,0,0,1-11.43,0C211.72,227.75,210.93,226.55,210.94,225.36Z" style="fill:#37474f"></path><path d="M227.11,202.17l-16.17,0s0,2.21,0,3.4.78,2.39,2.36,3.31a12.65,12.65,0,0,0,11.43,0c1.59-.91,2.38-2.1,2.38-3.3S227.11,202.17,227.11,202.17Z" style="fill:currentColor"></path><path d="M224.76,198.86a12.67,12.67,0,0,0-11.44,0c-3.16,1.82-3.17,4.77,0,6.61a12.64,12.64,0,0,0,11.44,0C227.9,203.65,227.91,200.69,224.76,198.86Z" style="fill:currentColor"></path><path d="M224.76,198.86a12.67,12.67,0,0,0-11.44,0c-3.16,1.82-3.17,4.77,0,6.61a12.64,12.64,0,0,0,11.44,0C227.9,203.65,227.91,200.69,224.76,198.86Z" style="opacity:0.15"></path><path d="M223.15,199.78a9.11,9.11,0,0,0-8.23,0c-2.27,1.31-2.28,3.44,0,4.75a9.09,9.09,0,0,0,8.22,0C225.41,203.22,225.42,201.1,223.15,199.78Z" style="fill:#263238"></path><path d="M214.92,203.11a4.62,4.62,0,0,0-.92.7,4,4,0,0,0,.91.69,9.09,9.09,0,0,0,8.22,0,4.35,4.35,0,0,0,.93-.7,4.82,4.82,0,0,0-.91-.69A9.11,9.11,0,0,0,214.92,203.11Z" style="fill:#455a64"></path><path d="M217.2,203.43c.07.32-.23.65-.66.74s-.85-.08-.91-.39.22-.65.66-.74A.72.72,0,0,1,217.2,203.43Z" style="fill:#fafafa"></path><path d="M218.22,203a.32.32,0,0,1-.24.38.32.32,0,0,1-.37-.24.32.32,0,0,1,.24-.38A.3.3,0,0,1,218.22,203Z" style="fill:#fafafa"></path><path d="M165.8,327.3v5.59L240,375.72v-5.6c0-3.09-3.08-7.38-6.89-9.57l-60.4-34.87c-2.29-1.33-4.32-1.59-5.57-.92A2.68,2.68,0,0,0,165.8,327.3Z" style="fill:#263238"></path><path d="M207.63,301.38l.09-.06h0c1.25-.71,3.31-.47,5.64.88l60.4,34.87c3.81,2.2,6.89,6.49,6.89,9.57v5.6L240,375.72v-5.6c0-3.09-3.08-7.38-6.89-9.57l-60.4-34.87c-2.29-1.33-4.32-1.59-5.57-.92Z" style="fill:#455a64"></path><path d="M192.23,312.77c8.2-4.74,21.49-4.74,29.69,0,4.75,2.74,6.74,6.48,6,10.05h0l25.55,14.75L235.2,348.12l-25.56-14.76h0c-6.2.44-12.68-.7-17.44-3.45C184,325.17,184,317.5,192.23,312.77Z" style="fill:#37474f"></path><path d="M228.06,307.9V302c0-3.1-2-6.21-6.14-8.57-8.2-4.73-21.49-4.73-29.69,0-4.09,2.36-6.14,5.46-6.14,8.56h0v5.94h0c-.06,3.14,2,6.29,6.13,8.69,8.2,4.73,21.49,4.73,29.69,0,4.15-2.4,6.19-5.55,6.13-8.69Z" style="fill:currentColor"></path><path d="M228.06,307.9V302c0-3.1-2-6.21-6.14-8.57-8.2-4.73-21.49-4.73-29.69,0-4.09,2.36-6.14,5.46-6.14,8.56h0v5.94h0c-.06,3.14,2,6.29,6.13,8.69,8.2,4.73,21.49,4.73,29.69,0,4.15-2.4,6.19-5.55,6.13-8.69Z" style="opacity:0.15"></path><path d="M192.23,293.4c8.2-4.73,21.49-4.73,29.69,0s8.19,12.4,0,17.13-21.49,4.74-29.69,0S184,298.13,192.23,293.4Z" style="fill:currentColor"></path><polygon points="235.2 335.21 235.2 328.75 253.46 318.2 253.46 324.67 235.2 335.21" style="fill:currentColor"></polygon><polygon points="235.2 335.21 235.2 328.75 253.46 318.2 253.46 324.67 235.2 335.21" style="opacity:0.15"></polygon><polygon points="235.2 335.21 209 320.08 209.64 313.99 235.2 328.75 235.2 335.21" style="fill:currentColor"></polygon><polygon points="235.2 335.21 209 320.08 209.64 313.99 235.2 328.75 235.2 335.21" style="opacity:0.15"></polygon><polygon points="253.46 318.2 227.91 303.45 209.64 313.99 235.2 328.75 253.46 318.2" style="fill:currentColor"></polygon><path d="M222.81,301.64V297.2c0-2.33-1.53-4.66-4.61-6.43-6.14-3.55-16.11-3.55-22.25,0-3.08,1.77-4.61,4.1-4.61,6.42h0v4.45h0c0,2.36,1.49,4.72,4.61,6.52,6.14,3.55,16.11,3.55,22.25,0,3.12-1.8,4.65-4.16,4.6-6.52Z" style="fill:#e0e0e0"></path><path d="M196,290.77c6.14-3.55,16.11-3.55,22.25,0s6.15,9.3,0,12.85-16.11,3.55-22.25,0S189.8,294.32,196,290.77Z" style="fill:#fafafa"></path><path d="M196.58,291.14c5.8-3.35,15.19-3.35,21,0s5.79,8.77,0,12.11-15.19,3.35-21,0S190.79,294.48,196.58,291.14Z" style="fill:#e6e6e6"></path><path d="M217.57,295.25c-5.8-3.35-15.19-3.35-21,0a8.82,8.82,0,0,0-3.91,4,8.82,8.82,0,0,0,3.91,4c5.8,3.35,15.19,3.35,21,0a8.82,8.82,0,0,0,3.91-4A8.82,8.82,0,0,0,217.57,295.25Z" style="fill:#f0f0f0"></path><path d="M204.58,297.65a5.87,5.87,0,0,1,5.32,0c1.47.85,1.47,2.22,0,3.07a5.87,5.87,0,0,1-5.32,0C203.11,299.87,203.11,298.5,204.58,297.65Z" style="fill:currentColor"></path><path d="M211.32,300.77a1.78,1.78,0,0,1,1.65,0c.46.26.46.68,0,1a1.84,1.84,0,0,1-1.65,0C210.87,301.45,210.87,301,211.32,300.77Z" style="fill:currentColor"></path><path d="M209.82,298.45c0,.41-.58.74-1.29.74s-1.29-.33-1.29-.74.58-.73,1.29-.73S209.82,298.05,209.82,298.45Z" style="fill:#fff;opacity:0.6000000000000001"></path><path d="M212.83,301c0,.12-.18.23-.4.23s-.4-.11-.4-.23.18-.23.4-.23S212.83,300.88,212.83,301Z" style="fill:#fff;opacity:0.6000000000000001"></path><path d="M227.9,336.05v9.33l16.16,9.33v-9.33c0-5.15-3.62-11.42-8.08-14-2.26-1.3-4.3-1.41-5.77-.53S227.9,333.51,227.9,336.05Z" style="fill:currentColor"></path><path d="M227.9,336.05v9.33l16.16,9.33v-9.33c0-5.15-3.62-11.42-8.08-14-2.26-1.3-4.3-1.41-5.77-.53S227.9,333.51,227.9,336.05Z" style="fill:#fff;opacity:0.6000000000000001"></path><path d="M249.55,319.69l.13-.08c1.45-.83,3.47-.7,5.69.58,4.46,2.58,8.08,8.84,8.08,14v9.34l-19.39,11.19v-9.33c0-5.15-3.62-11.42-8.08-14-2.15-1.23-4.09-1.4-5.53-.67Z" style="fill:currentColor"></path><path d="M249.55,319.69l.13-.08c1.45-.83,3.47-.7,5.69.58,4.46,2.58,8.08,8.84,8.08,14v9.34l-19.39,11.19v-9.33c0-5.15-3.62-11.42-8.08-14-2.15-1.23-4.09-1.4-5.53-.67Z" style="fill:#fff;opacity:0.7000000000000001"></path><path d="M236,337.47c-1.79-1-3.23-.19-3.23,1.87a7.13,7.13,0,0,0,3.23,5.6c1.78,1,3.23.19,3.23-1.87A7.18,7.18,0,0,0,236,337.47Z" style="fill:#455a64"></path><path d="M225.09,268.29a51.73,51.73,0,0,1,10.82,11.14,45.54,45.54,0,0,1,7.47,24.1c0,16.51-9.39,25-9.69,25.31,1.44-.72,3.38-.56,5.52.67,4.46,2.58,8.08,8.85,8.08,14h0c.21-.27,5-6.7,7.76-19.13A82.81,82.81,0,0,0,257,306.19a60.57,60.57,0,0,0-5.46-25.79,54.68,54.68,0,0,0-7.24-11.51c-3.67-4.74-6.69-8.65-12.06-12.25a7.46,7.46,0,0,0-4.19-1.38C226.13,258.42,222.35,266,225.09,268.29Z" style="fill:#263238"></path><path d="M225.55,255.86a5.44,5.44,0,0,1,2.48-.6,6.66,6.66,0,0,1,1-1.38Z" style="fill:#37474f"></path><path d="M238.17,248.57a4.72,4.72,0,0,1,1.93-.66,6.08,6.08,0,0,1,2.23.12,9.81,9.81,0,0,1,2.83,1.15c6.79,4,14.65,14.16,18.17,21.35a64.18,64.18,0,0,1,6.58,28.2c0,24.74-9.69,37.32-9.69,37.32L247.3,343.5c.2-.28,5-6.7,7.76-19.13A83.42,83.42,0,0,0,257,306.19a60.57,60.57,0,0,0-5.46-25.79,54.93,54.93,0,0,0-7.24-11.51c-3.67-4.74-6.69-8.65-12.05-12.25-2.64-1.76-5.22-1.7-7-.6Z" style="fill:#37474f"></path><path d="M223.23,252.76c1.34-.83,3.2-.74,5.28.46a12.86,12.86,0,0,1,3.14,2.63,10.28,10.28,0,0,1,.67.81l0,0a17.88,17.88,0,0,1,2.76,5.14,12.85,12.85,0,0,1,.71,4.05c0,2.28-.78,3.89-2.05,4.68L231.34,272a3.69,3.69,0,0,0,1-.91,6.19,6.19,0,0,0,1.06-3.77,16.2,16.2,0,0,0-7.32-12.68,6.17,6.17,0,0,0-3.82-1,3.38,3.38,0,0,0-1.41.48h0Z" style="fill:currentColor"></path><path d="M223.23,252.76c1.34-.83,3.2-.74,5.28.46a12.86,12.86,0,0,1,3.14,2.63,10.28,10.28,0,0,1,.67.81l0,0a17.88,17.88,0,0,1,2.76,5.14,12.85,12.85,0,0,1,.71,4.05c0,2.28-.78,3.89-2.05,4.68L231.34,272a3.69,3.69,0,0,0,1-.91,6.19,6.19,0,0,0,1.06-3.77,16.2,16.2,0,0,0-7.32-12.68,6.17,6.17,0,0,0-3.82-1,3.38,3.38,0,0,0-1.41.48h0Z" style="fill:#fff;opacity:0.7000000000000001"></path><path d="M220.84,254.15a3.38,3.38,0,0,1,1.41-.48,6.17,6.17,0,0,1,3.82,1,16.2,16.2,0,0,1,7.32,12.68,6.19,6.19,0,0,1-1.06,3.77,3.69,3.69,0,0,1-1,.91l-.12.07a3.72,3.72,0,0,1-2,.47,6.66,6.66,0,0,1-3.14-1,16.16,16.16,0,0,1-7.32-12.67C218.75,256.55,219.55,254.92,220.84,254.15Z" style="fill:currentColor"></path><path d="M220.84,254.15a3.38,3.38,0,0,1,1.41-.48,6.17,6.17,0,0,1,3.82,1,16.2,16.2,0,0,1,7.32,12.68,6.19,6.19,0,0,1-1.06,3.77,3.69,3.69,0,0,1-1,.91l-.12.07a3.72,3.72,0,0,1-2,.47,6.66,6.66,0,0,1-3.14-1,16.16,16.16,0,0,1-7.32-12.67C218.75,256.55,219.55,254.92,220.84,254.15Z" style="fill:#fff;opacity:0.6000000000000001"></path><path d="M226.07,259.67c-1.63-.94-2.95-.18-2.95,1.7a6.52,6.52,0,0,0,2.95,5.11c1.63.94,3,.18,3-1.7A6.52,6.52,0,0,0,226.07,259.67Z" style="fill:#455a64"></path></g></g><g id="freepik--Arm--inject-145"><path d="M153,338.67c-6.34-5.27-39-28.62-48.91-36.31s-9.36-10.95-12.48-28.65-5.25-44-6.51-58.41,3.92-30,23.16-36.84c9.58,5.87,14.16,20.36,15.51,38.49,1.37,18.48,4.73,61.14,4.73,61.14s23.08,28.06,30.15,34.43c8,7.25,10.74,5.74,21.31,7.64,9.51,1.72,14.52,6,19.94,7.53,2,.57,4.23.73,4.73,2,.82,2-2.34,4.82-6.6,5-6.83.31-9.8-1.81-13.59-1.42-2.12.22,2.3,6.11,2.64,6.54a50.88,50.88,0,0,0,6.15,6.39c2.17,1.89,7.52,3.51,10.18,4.56s5.55,2.88,6.67,5.66c.28.67.36,1.62-.28,2a1.71,1.71,0,0,1-1,.09l-2.68-.35-1-.14a4.48,4.48,0,0,1-.27.92c-.57,1.16-2,1-3.13.93s-2.26-.38-3.43-.5a6.27,6.27,0,0,1-4.11,1.18,12.82,12.82,0,0,1-2.6-.42,82.9,82.9,0,0,1-8.14-2.33c-4.82-1.71-10.68-3.77-15.15-6.27C164.3,349.26,159.33,343.93,153,338.67Z" style="fill:#b16668"></path><path d="M110.49,176.48C100,180.57,96,183.6,91.36,188.63s-7.8,12-6.45,34.15,6.74,59.56,8,65.33,2.3,9.95,9.74,15.34,28.86,20.41,28.86,20.41A23.34,23.34,0,0,1,138.08,308c7-7.58,9.84-6.95,9.84-6.95l-18.77-23.75s-3.22-44.88-4.53-61.21S118.93,186.28,110.49,176.48Z" style="fill:#e0e0e0"></path></g></g></g><g id="freepik--tubes-2--inject-145"><g id="freepik--Tubes--inject-145"><polygon points="356.82 271.97 305.18 242.16 315.81 236.02 367.44 265.83 356.82 271.97" style="fill:currentColor;opacity:0.30000000000000004"></polygon><path d="M349.86,218h0l-.69-.39v1.16a2,2,0,0,0,.4,1.18,3,3,0,0,0,.29.35v5a3.48,3.48,0,0,1,.88-.68,8.39,8.39,0,0,1,7.59,0,4.1,4.1,0,0,1,.95.73v-1.94Z" style="fill:#fafafa"></path><path d="M338.59,218.82a8.41,8.41,0,0,1,7.6,0,3.11,3.11,0,0,1,1.46,1.58c.35-1-.14-2.05-1.46-2.81a8.35,8.35,0,0,0-7.6,0c-1.32.76-1.81,1.82-1.46,2.81A3.11,3.11,0,0,1,338.59,218.82Z" style="fill:#263238"></path><path d="M326.45,211.81a8.39,8.39,0,0,1,7.59,0,3.06,3.06,0,0,1,1.46,1.57c.35-1-.14-2-1.46-2.81a8.39,8.39,0,0,0-7.59,0c-1.33.76-1.82,1.83-1.47,2.81A3,3,0,0,1,326.45,211.81Z" style="fill:#263238"></path><path d="M314.3,204.8a8.33,8.33,0,0,1,7.59,0,3.06,3.06,0,0,1,1.46,1.57c.35-1-.14-2.05-1.46-2.81a8.39,8.39,0,0,0-7.59,0c-1.33.76-1.82,1.83-1.47,2.81A3,3,0,0,1,314.3,204.8Z" style="fill:#263238"></path><path d="M350.75,225.84a8.33,8.33,0,0,1,7.59,0,3.06,3.06,0,0,1,1.46,1.57c.35-1-.14-2-1.46-2.81a8.39,8.39,0,0,0-7.59,0c-1.33.76-1.82,1.83-1.47,2.81A3,3,0,0,1,350.75,225.84Z" style="fill:#263238"></path><path d="M314.3,203.56a8.39,8.39,0,0,1,7.59,0,3.81,3.81,0,0,1,.89.69v-1.93l-7-4-2.45,1.41v4.57A4.23,4.23,0,0,1,314.3,203.56Z" style="fill:#fafafa"></path><path d="M325.63,204h0l-.09-.06h0l-.68-.4v1.17a2,2,0,0,0,.39,1.17,2.92,2.92,0,0,0,.29.34v5.09a3.73,3.73,0,0,1,.91-.71,8.41,8.41,0,0,1,7.6,0,3.73,3.73,0,0,1,.91.71v-1.94Z" style="fill:#fafafa"></path><path d="M337.84,211h0l-.83-.48v1.17a2,2,0,0,0,.4,1.17,3.07,3.07,0,0,0,.28.35h0v5.06a4.13,4.13,0,0,1,.9-.7,8.41,8.41,0,0,1,7.6,0,4.39,4.39,0,0,1,.92.72v-1.93Z" style="fill:#fafafa"></path><path d="M313.28,207.12l0,0Z" style="fill:#e0e0e0"></path><path d="M313.31,207.16a2.72,2.72,0,0,0,.24.24A2.72,2.72,0,0,1,313.31,207.16Z" style="fill:#e0e0e0"></path><path d="M313.36,206.19v-1.91c-1.09,1.17-.78,2.67.94,3.66a8.39,8.39,0,0,0,7.59,0c1.73-1,2-2.51.89-3.69v1.94Z" style="fill:none"></path><path d="M338.59,246.87a8.41,8.41,0,0,1,7.6,0,3.11,3.11,0,0,1,1.46,1.58c.35-1-.14-2-1.46-2.81a8.35,8.35,0,0,0-7.6,0c-1.32.76-1.81,1.82-1.46,2.81A3.11,3.11,0,0,1,338.59,246.87Z" style="fill:#263238"></path><path d="M326.45,239.86a8.39,8.39,0,0,1,7.59,0,3.06,3.06,0,0,1,1.46,1.57c.35-1-.14-2.05-1.46-2.81a8.39,8.39,0,0,0-7.59,0c-1.33.76-1.82,1.83-1.47,2.81A3,3,0,0,1,326.45,239.86Z" style="fill:#263238"></path><path d="M314.3,232.85a8.39,8.39,0,0,1,7.59,0,3.06,3.06,0,0,1,1.46,1.57c.35-1-.14-2-1.46-2.81a8.39,8.39,0,0,0-7.59,0c-1.33.76-1.82,1.83-1.47,2.81A3,3,0,0,1,314.3,232.85Z" style="fill:#263238"></path><path d="M350.75,253.89a8.33,8.33,0,0,1,7.59,0,3.06,3.06,0,0,1,1.46,1.57c.35-1-.14-2.05-1.46-2.81a8.39,8.39,0,0,0-7.59,0c-1.33.76-1.82,1.83-1.47,2.81A3,3,0,0,1,350.75,253.89Z" style="fill:#263238"></path><path d="M314.3,231.61a8.39,8.39,0,0,1,7.59,0,3.81,3.81,0,0,1,.89.69v-1.93l-7-4-2.45,1.41v4.57A4.23,4.23,0,0,1,314.3,231.61Z" style="fill:#fafafa"></path><path d="M326.44,238.62a8.41,8.41,0,0,1,7.6,0,3.73,3.73,0,0,1,.91.71v-1.94L325.53,232v7.37A4,4,0,0,1,326.44,238.62Z" style="fill:#fafafa"></path><path d="M338.59,245.63a8.41,8.41,0,0,1,7.6,0,4.11,4.11,0,0,1,.92.73v-1.94L337.69,239v7.35A4.46,4.46,0,0,1,338.59,245.63Z" style="fill:#fafafa"></path><path d="M350.74,252.65a8.39,8.39,0,0,1,7.59,0,3.87,3.87,0,0,1,.95.74v-1.95L349.86,246v7.33A3.48,3.48,0,0,1,350.74,252.65Z" style="fill:#fafafa"></path><g id="freepik--test-tube--inject-145"><path d="M322.79,198.18a2.33,2.33,0,0,0-1.38-1.92,7.31,7.31,0,0,0-6.66,0,2.33,2.33,0,0,0-1.38,1.92v42h0a4.71,4.71,0,0,0,9.42,0h0Z" style="fill:currentColor"></path><path d="M322.79,198.18a2.33,2.33,0,0,0-1.38-1.92,7.31,7.31,0,0,0-6.66,0,2.33,2.33,0,0,0-1.38,1.92v42h0a4.71,4.71,0,0,0,9.42,0h0Z" style="fill:#fff;opacity:0.7000000000000001"></path><path d="M321.38,206.09a1.64,1.64,0,0,0-1-1.35,5.19,5.19,0,0,0-4.67,0,1.65,1.65,0,0,0-1,1.35v34h0a3.3,3.3,0,1,0,6.6,0h0Z" style="fill:currentColor"></path><g style="opacity:0.1"><path d="M318.08,243.35a3.29,3.29,0,0,0,3.29-3.13,2.3,2.3,0,0,1-4.51-.63h0V204.32a4,4,0,0,0-1.11.42,1.65,1.65,0,0,0-1,1.35v34h0A3.3,3.3,0,0,0,318.08,243.35Z"></path></g><path d="M321.38,206.09c0,1-1.48,1.9-3.3,1.9s-3.3-.85-3.3-1.9,1.48-1.9,3.3-1.9S321.38,205,321.38,206.09Z" style="fill:currentColor"></path><g style="opacity:0.30000000000000004"><path d="M321.38,206.09c0,1-1.48,1.9-3.3,1.9s-3.3-.85-3.3-1.9,1.48-1.9,3.3-1.9S321.38,205,321.38,206.09Z" style="fill:#fff"></path></g><g style="opacity:0.5"><path d="M321.38,206.09a1.65,1.65,0,0,0-1-1.34,1.44,1.44,0,0,1-.67,2.49,4.62,4.62,0,0,1-4.85-.65,3.52,3.52,0,0,0,3.18,1.4C319.9,208,321.38,207.14,321.38,206.09Z" style="fill:#fff"></path></g><path d="M321,241.52c0,.46.28.69.61.47a1.64,1.64,0,0,0,.57-1.26V196.82a3.49,3.49,0,0,0-.75-.56A4.32,4.32,0,0,0,321,196Z" style="fill:#fff;opacity:0.4"></path><path d="M320.08,242.68h0a.48.48,0,0,0,.33-.44V195.82c-.22-.07-.45-.13-.68-.18v46.79A.25.25,0,0,0,320.08,242.68Z" style="fill:#fff;opacity:0.4"></path><path d="M321.62,200.8a3.25,3.25,0,0,0,1.17-1.08v-1.54a1.69,1.69,0,0,0-.08-.5,3.47,3.47,0,0,0-1.09-1,7.93,7.93,0,0,0-6.64-.21v-.37l-.06,0-.17.09a3.38,3.38,0,0,0-.94.77,2,2,0,0,0-.35.63,1.54,1.54,0,0,0-.09.52V200h0v5.45h0v34.75h0a4.71,4.71,0,0,0,9,1.89c-.82,1.61-3.05,2.31-5,1.78h0a2.66,2.66,0,0,1-1.91-2.57v-40.1A7.92,7.92,0,0,0,321.62,200.8Z" style="fill:currentColor;opacity:0.2"></path><path d="M317.6,244.91h0a4.07,4.07,0,0,1-3.43-4.35V196.67l-.06.05a2.44,2.44,0,0,0-.53.66l0,0-.06.14,0,.05a2.25,2.25,0,0,0-.09.35v0c0,.06,0,.12,0,.18V200h0v5.45h0v34.75h0A4.72,4.72,0,0,0,317.6,244.91Z" style="fill:currentColor;opacity:0.30000000000000004"></path><path d="M323.48,195.32a2.68,2.68,0,0,0-1.58-2.2,8.41,8.41,0,0,0-7.63,0,2.68,2.68,0,0,0-1.58,2.2h0v2.33h0a2.68,2.68,0,0,0,1.58,2.2,8.41,8.41,0,0,0,7.63,0,2.68,2.68,0,0,0,1.58-2.2h0v-2.33Z" style="fill:currentColor"></path><path d="M323.48,195.32a2.68,2.68,0,0,0-1.58-2.2,8.41,8.41,0,0,0-7.63,0,2.68,2.68,0,0,0-1.58,2.2h0v2.33h0a2.68,2.68,0,0,0,1.58,2.2,8.41,8.41,0,0,0,7.63,0,2.68,2.68,0,0,0,1.58-2.2h0v-2.33Z" style="fill:#fff;opacity:0.5"></path><path d="M322.25,199.63c-1.58.72-4.53,1.09-6.1.43s-2.5-1.41-2.5-3v-3.49a2.33,2.33,0,0,0-1,1.77h0v2.33h0a2.68,2.68,0,0,0,1.58,2.2,8.41,8.41,0,0,0,7.63,0Z" style="fill:currentColor;opacity:0.30000000000000004"></path><path d="M314.27,197.52a8.41,8.41,0,0,0,7.63,0c2.1-1.21,2.1-3.18,0-4.4a8.41,8.41,0,0,0-7.63,0C312.16,194.34,312.16,196.31,314.27,197.52Z" style="fill:currentColor"></path><path d="M314.27,197.52a8.41,8.41,0,0,0,7.63,0c2.1-1.21,2.1-3.18,0-4.4a8.41,8.41,0,0,0-7.63,0C312.16,194.34,312.16,196.31,314.27,197.52Z" style="fill:#fff;opacity:0.7000000000000001"></path><path d="M315.73,193.51c-1.71.44-2.26,1.73-1.52,2.73s2.15,1.82,4.69,1.49,3.05-1.7,3.05-2Z" style="fill:#fff;opacity:0.7000000000000001"></path><path d="M315.3,196.93a6.18,6.18,0,0,0,5.56,0c1.54-.89,1.54-2.33,0-3.21a6.12,6.12,0,0,0-5.56,0C313.77,194.6,313.77,196,315.3,196.93Z" style="fill:currentColor"></path><path d="M315.3,196.93a6.18,6.18,0,0,0,5.56,0c1.54-.89,1.54-2.33,0-3.21a6.12,6.12,0,0,0-5.56,0C313.77,194.6,313.77,196,315.3,196.93Z" style="fill:#fff;opacity:0.4"></path><path d="M315.3,196.49a3.62,3.62,0,0,0-.32.22l.32.22a6.18,6.18,0,0,0,5.56,0c.12-.07.23-.15.33-.22a2.7,2.7,0,0,0-.33-.22A6.18,6.18,0,0,0,315.3,196.49Z" style="fill:#fff;opacity:0.4"></path></g><g id="freepik--test-tube--inject-145"><path d="M335,205.2a2.34,2.34,0,0,0-1.38-1.92,7.37,7.37,0,0,0-6.66,0,2.34,2.34,0,0,0-1.38,1.92v42h0a4.71,4.71,0,1,0,9.42,0h0Z" style="fill:currentColor"></path><path d="M335,205.2a2.34,2.34,0,0,0-1.38-1.92,7.37,7.37,0,0,0-6.66,0,2.34,2.34,0,0,0-1.38,1.92v42h0a4.71,4.71,0,1,0,9.42,0h0Z" style="fill:#fff;opacity:0.7000000000000001"></path><path d="M333.54,213.11a1.64,1.64,0,0,0-1-1.34,5.13,5.13,0,0,0-4.67,0,1.65,1.65,0,0,0-1,1.34v34h0a3.3,3.3,0,1,0,6.6,0h0Z" style="fill:currentColor"></path><g style="opacity:0.1"><path d="M330.24,250.38a3.29,3.29,0,0,0,3.29-3.14,2.3,2.3,0,0,1-4.51-.63h0V211.35a4,4,0,0,0-1.11.42,1.65,1.65,0,0,0-1,1.34v34h0A3.3,3.3,0,0,0,330.24,250.38Z"></path></g><path d="M333.54,213.11c0,1-1.47,1.91-3.3,1.91s-3.3-.86-3.3-1.91,1.48-1.9,3.3-1.9S333.54,212.06,333.54,213.11Z" style="fill:currentColor"></path><g style="opacity:0.30000000000000004"><path d="M333.54,213.11c0,1-1.47,1.91-3.3,1.91s-3.3-.86-3.3-1.91,1.48-1.9,3.3-1.9S333.54,212.06,333.54,213.11Z" style="fill:#fff"></path></g><g style="opacity:0.5"><path d="M333.54,213.11a1.66,1.66,0,0,0-1-1.34,1.44,1.44,0,0,1-.67,2.49,4.63,4.63,0,0,1-4.85-.64,3.54,3.54,0,0,0,3.18,1.4C332.07,215,333.54,214.16,333.54,213.11Z" style="fill:#fff"></path></g><path d="M333.14,248.54c0,.47.28.69.61.48a1.67,1.67,0,0,0,.57-1.26V203.85a3.51,3.51,0,0,0-.75-.57,4.32,4.32,0,0,0-.43-.22Z" style="fill:#fff;opacity:0.4"></path><path d="M332.24,249.71h0a.48.48,0,0,0,.33-.44V202.85a5.27,5.27,0,0,0-.68-.19v46.79A.25.25,0,0,0,332.24,249.71Z" style="fill:#fff;opacity:0.4"></path><path d="M333.78,207.83a3.27,3.27,0,0,0,1.17-1.09V205.2a1.49,1.49,0,0,0-.08-.5,3.33,3.33,0,0,0-1.09-.95,7.9,7.9,0,0,0-6.64-.22v-.37l-.06,0-.17.09a3.4,3.4,0,0,0-.94.78,2,2,0,0,0-.35.62,1.63,1.63,0,0,0-.09.52V207h0v5.45h0v34.76h0a4.71,4.71,0,0,0,9,1.89c-.82,1.61-3.05,2.3-5,1.77h0a2.66,2.66,0,0,1-1.91-2.57V208.25A7.92,7.92,0,0,0,333.78,207.83Z" style="fill:currentColor;opacity:0.2"></path><path d="M329.76,251.93h0a4.07,4.07,0,0,1-3.43-4.35V203.69l-.06.06a2.44,2.44,0,0,0-.53.66l0,0-.06.14a.08.08,0,0,0,0,0,2,2,0,0,0-.09.35v0c0,.06,0,.11,0,.17V207h0v5.45h0v34.76h0A4.71,4.71,0,0,0,329.76,251.93Z" style="fill:currentColor;opacity:0.30000000000000004"></path><path d="M335.64,202.35a2.7,2.7,0,0,0-1.58-2.21,8.47,8.47,0,0,0-7.63,0,2.7,2.7,0,0,0-1.58,2.21h0v2.32h0a2.7,2.7,0,0,0,1.58,2.21,8.47,8.47,0,0,0,7.63,0,2.7,2.7,0,0,0,1.58-2.21h0v-2.32Z" style="fill:currentColor"></path><path d="M335.64,202.35a2.7,2.7,0,0,0-1.58-2.21,8.47,8.47,0,0,0-7.63,0,2.7,2.7,0,0,0-1.58,2.21h0v2.32h0a2.7,2.7,0,0,0,1.58,2.21,8.47,8.47,0,0,0,7.63,0,2.7,2.7,0,0,0,1.58-2.21h0v-2.32Z" style="fill:#fff;opacity:0.5"></path><path d="M334.41,206.65c-1.58.73-4.53,1.1-6.1.43s-2.5-1.41-2.5-3v-3.5a2.33,2.33,0,0,0-1,1.78h0v2.32h0a2.7,2.7,0,0,0,1.58,2.21,8.47,8.47,0,0,0,7.63,0Z" style="fill:currentColor;opacity:0.30000000000000004"></path><path d="M326.43,204.55a8.47,8.47,0,0,0,7.63,0c2.1-1.22,2.1-3.19,0-4.41a8.47,8.47,0,0,0-7.63,0C324.32,201.36,324.32,203.33,326.43,204.55Z" style="fill:currentColor"></path><path d="M326.43,204.55a8.47,8.47,0,0,0,7.63,0c2.1-1.22,2.1-3.19,0-4.41a8.47,8.47,0,0,0-7.63,0C324.32,201.36,324.32,203.33,326.43,204.55Z" style="fill:#fff;opacity:0.7000000000000001"></path><path d="M327.89,200.53c-1.71.45-2.26,1.74-1.52,2.74s2.15,1.81,4.69,1.48,3.05-1.69,3.05-2Z" style="fill:#fff;opacity:0.7000000000000001"></path><path d="M327.47,204a6.1,6.1,0,0,0,5.55,0c1.54-.89,1.54-2.32,0-3.21a6.16,6.16,0,0,0-5.55,0C325.93,201.63,325.93,203.06,327.47,204Z" style="fill:currentColor"></path><path d="M327.47,204a6.1,6.1,0,0,0,5.55,0c1.54-.89,1.54-2.32,0-3.21a6.16,6.16,0,0,0-5.55,0C325.93,201.63,325.93,203.06,327.47,204Z" style="fill:#fff;opacity:0.4"></path><path d="M327.47,203.52l-.33.21a2.7,2.7,0,0,0,.33.22,6.1,6.1,0,0,0,5.55,0,2.7,2.7,0,0,0,.33-.22l-.33-.21A6.1,6.1,0,0,0,327.47,203.52Z" style="fill:#fff;opacity:0.4"></path></g><g id="freepik--test-tube--inject-145"><path d="M347.11,212.23a2.36,2.36,0,0,0-1.38-1.93,7.37,7.37,0,0,0-6.66,0,2.36,2.36,0,0,0-1.38,1.93v42h0a4.71,4.71,0,0,0,9.42,0h0Z" style="fill:currentColor"></path><path d="M347.11,212.23a2.36,2.36,0,0,0-1.38-1.93,7.37,7.37,0,0,0-6.66,0,2.36,2.36,0,0,0-1.38,1.93v42h0a4.71,4.71,0,0,0,9.42,0h0Z" style="fill:#fff;opacity:0.7000000000000001"></path><path d="M345.7,220.14a1.64,1.64,0,0,0-1-1.35,5.19,5.19,0,0,0-4.67,0,1.65,1.65,0,0,0-1,1.35v34h0a3.3,3.3,0,0,0,6.6,0h0Z" style="fill:currentColor"></path><g style="opacity:0.1"><path d="M342.4,257.4a3.29,3.29,0,0,0,3.29-3.13,2.3,2.3,0,0,1-4.51-.63h0V218.37a4,4,0,0,0-1.11.42,1.65,1.65,0,0,0-1,1.35v34h0A3.3,3.3,0,0,0,342.4,257.4Z"></path></g><path d="M345.7,220.14c0,1.05-1.47,1.9-3.3,1.9s-3.3-.85-3.3-1.9,1.48-1.9,3.3-1.9S345.7,219.09,345.7,220.14Z" style="fill:currentColor"></path><g style="opacity:0.30000000000000004"><path d="M345.7,220.14c0,1.05-1.47,1.9-3.3,1.9s-3.3-.85-3.3-1.9,1.48-1.9,3.3-1.9S345.7,219.09,345.7,220.14Z" style="fill:#fff"></path></g><g style="opacity:0.5"><path d="M345.7,220.14a1.64,1.64,0,0,0-1-1.34,1.43,1.43,0,0,1-.67,2.48,4.6,4.6,0,0,1-4.85-.64,3.52,3.52,0,0,0,3.18,1.4C344.23,222,345.7,221.19,345.7,220.14Z" style="fill:#fff"></path></g><path d="M345.3,255.57c0,.46.28.69.61.47a1.64,1.64,0,0,0,.57-1.26V210.87a3.87,3.87,0,0,0-.75-.57,4.3,4.3,0,0,0-.43-.21Z" style="fill:#fff;opacity:0.4"></path><path d="M344.4,256.73h0a.48.48,0,0,0,.33-.43V209.87c-.22-.07-.45-.13-.68-.18v46.78A.25.25,0,0,0,344.4,256.73Z" style="fill:#fff;opacity:0.4"></path><path d="M345.94,214.85a3.25,3.25,0,0,0,1.17-1.08v-1.54a1.42,1.42,0,0,0-.08-.5,3.35,3.35,0,0,0-1.09-1,7.9,7.9,0,0,0-6.64-.21v-.37l-.06,0-.17.08a3.58,3.58,0,0,0-.94.78,2,2,0,0,0-.35.63,1.54,1.54,0,0,0-.09.52v1.84h0v5.45h0v34.75h0a4.71,4.71,0,0,0,9,1.89c-.82,1.61-3,2.31-5,1.77h0a2.66,2.66,0,0,1-1.91-2.58V215.27A7.92,7.92,0,0,0,345.94,214.85Z" style="fill:currentColor;opacity:0.2"></path><path d="M341.92,259h0a4.08,4.08,0,0,1-3.43-4.35V210.72l-.06.05a2.44,2.44,0,0,0-.53.66l0,0-.06.14,0,0a2.25,2.25,0,0,0-.09.35v0c0,.06,0,.12,0,.18v1.84h0v5.45h0v34.75h0A4.73,4.73,0,0,0,341.92,259Z" style="fill:currentColor;opacity:0.30000000000000004"></path><path d="M347.8,209.37a2.68,2.68,0,0,0-1.58-2.2,8.41,8.41,0,0,0-7.63,0,2.68,2.68,0,0,0-1.58,2.2h0v2.33h0a2.68,2.68,0,0,0,1.58,2.2,8.41,8.41,0,0,0,7.63,0,2.68,2.68,0,0,0,1.58-2.2h0v-2.33Z" style="fill:currentColor"></path><path d="M347.8,209.37a2.68,2.68,0,0,0-1.58-2.2,8.41,8.41,0,0,0-7.63,0,2.68,2.68,0,0,0-1.58,2.2h0v2.33h0a2.68,2.68,0,0,0,1.58,2.2,8.41,8.41,0,0,0,7.63,0,2.68,2.68,0,0,0,1.58-2.2h0v-2.33Z" style="fill:#fff;opacity:0.5"></path><path d="M346.57,213.68c-1.58.72-4.53,1.09-6.1.43s-2.49-1.42-2.49-3V207.6a2.31,2.31,0,0,0-1,1.77h0v2.33h0a2.68,2.68,0,0,0,1.58,2.2,8.41,8.41,0,0,0,7.63,0Z" style="fill:currentColor;opacity:0.30000000000000004"></path><path d="M338.59,211.57a8.41,8.41,0,0,0,7.63,0c2.1-1.21,2.1-3.19,0-4.4a8.41,8.41,0,0,0-7.63,0C336.48,208.38,336.48,210.36,338.59,211.57Z" style="fill:currentColor"></path><path d="M338.59,211.57a8.41,8.41,0,0,0,7.63,0c2.1-1.21,2.1-3.19,0-4.4a8.41,8.41,0,0,0-7.63,0C336.48,208.38,336.48,210.36,338.59,211.57Z" style="fill:#fff;opacity:0.7000000000000001"></path><path d="M340.05,207.56c-1.71.44-2.26,1.73-1.52,2.73s2.15,1.82,4.69,1.48,3-1.69,3-2Z" style="fill:#fff;opacity:0.7000000000000001"></path><path d="M339.63,211a6.1,6.1,0,0,0,5.55,0c1.54-.88,1.54-2.32,0-3.2a6.1,6.1,0,0,0-5.55,0C338.09,208.65,338.09,210.09,339.63,211Z" style="fill:currentColor"></path><path d="M339.63,211a6.1,6.1,0,0,0,5.55,0c1.54-.88,1.54-2.32,0-3.2a6.1,6.1,0,0,0-5.55,0C338.09,208.65,338.09,210.09,339.63,211Z" style="fill:#fff;opacity:0.4"></path><path d="M339.63,210.54a2.7,2.7,0,0,0-.33.22,2.66,2.66,0,0,0,.33.21,6.1,6.1,0,0,0,5.55,0,2.66,2.66,0,0,0,.33-.21,2.7,2.7,0,0,0-.33-.22A6.16,6.16,0,0,0,339.63,210.54Z" style="fill:#fff;opacity:0.4"></path></g><g id="freepik--test-tube--inject-145"><path d="M359.27,219.25a2.34,2.34,0,0,0-1.38-1.92,7.37,7.37,0,0,0-6.66,0,2.34,2.34,0,0,0-1.38,1.92v42h0a4.71,4.71,0,0,0,9.42,0h0Z" style="fill:currentColor"></path><path d="M359.27,219.25a2.34,2.34,0,0,0-1.38-1.92,7.37,7.37,0,0,0-6.66,0,2.34,2.34,0,0,0-1.38,1.92v42h0a4.71,4.71,0,0,0,9.42,0h0Z" style="fill:#fff;opacity:0.7000000000000001"></path><path d="M357.86,227.16a1.64,1.64,0,0,0-1-1.34,5.13,5.13,0,0,0-4.67,0,1.64,1.64,0,0,0-1,1.34v34h0a3.3,3.3,0,0,0,6.59,0h0Z" style="fill:currentColor"></path><g style="opacity:0.1"><path d="M354.56,264.42a3.28,3.28,0,0,0,3.29-3.13,2.3,2.3,0,0,1-4.51-.63h0V225.39a4.34,4.34,0,0,0-1.11.43,1.64,1.64,0,0,0-1,1.34v34h0A3.29,3.29,0,0,0,354.56,264.42Z"></path></g><path d="M357.86,227.16c0,1.05-1.47,1.91-3.3,1.91s-3.29-.86-3.29-1.91,1.47-1.9,3.29-1.9S357.86,226.11,357.86,227.16Z" style="fill:currentColor"></path><g style="opacity:0.30000000000000004"><path d="M357.86,227.16c0,1.05-1.47,1.91-3.3,1.91s-3.29-.86-3.29-1.91,1.47-1.9,3.29-1.9S357.86,226.11,357.86,227.16Z" style="fill:#fff"></path></g><g style="opacity:0.5"><path d="M357.86,227.16a1.65,1.65,0,0,0-1-1.34,1.44,1.44,0,0,1-.67,2.49,4.58,4.58,0,0,1-4.84-.65,3.49,3.49,0,0,0,3.17,1.41C356.39,229.07,357.86,228.21,357.86,227.16Z" style="fill:#fff"></path></g><path d="M357.46,262.59c0,.47.28.69.61.48a1.67,1.67,0,0,0,.57-1.27V217.9a3.21,3.21,0,0,0-.75-.57,4.32,4.32,0,0,0-.43-.22Z" style="fill:#fff;opacity:0.4"></path><path d="M356.56,263.76h0a.48.48,0,0,0,.33-.44V216.9a5.27,5.27,0,0,0-.68-.19V263.5A.26.26,0,0,0,356.56,263.76Z" style="fill:#fff;opacity:0.4"></path><path d="M358.1,221.88a3.19,3.19,0,0,0,1.17-1.09v-1.54a1.45,1.45,0,0,0-.08-.5,3.33,3.33,0,0,0-1.09-.95,7.9,7.9,0,0,0-6.64-.22v-.37l-.06,0-.17.09a3.4,3.4,0,0,0-.94.78,2,2,0,0,0-.35.62,1.58,1.58,0,0,0-.09.52v1.84h0v5.45h0v34.75h0a4.71,4.71,0,0,0,9,1.89c-.82,1.62-3.05,2.31-5,1.78h0a2.66,2.66,0,0,1-1.91-2.57V222.3A7.92,7.92,0,0,0,358.1,221.88Z" style="fill:currentColor;opacity:0.2"></path><path d="M354.08,266h0a4.07,4.07,0,0,1-3.43-4.35V217.74l-.06.06a2.3,2.3,0,0,0-.53.66l0,0-.06.14a.14.14,0,0,0,0,.06,2.14,2.14,0,0,0-.09.34v.05s0,.11,0,.17v1.84h0v5.45h0v34.75h0A4.72,4.72,0,0,0,354.08,266Z" style="fill:currentColor;opacity:0.30000000000000004"></path><path d="M360,216.39a2.7,2.7,0,0,0-1.58-2.2,8.47,8.47,0,0,0-7.63,0,2.7,2.7,0,0,0-1.58,2.2h0v2.33h0a2.67,2.67,0,0,0,1.58,2.2,8.41,8.41,0,0,0,7.63,0,2.67,2.67,0,0,0,1.58-2.2h0v-2.33Z" style="fill:currentColor"></path><path d="M360,216.39a2.7,2.7,0,0,0-1.58-2.2,8.47,8.47,0,0,0-7.63,0,2.7,2.7,0,0,0-1.58,2.2h0v2.33h0a2.67,2.67,0,0,0,1.58,2.2,8.41,8.41,0,0,0,7.63,0,2.67,2.67,0,0,0,1.58-2.2h0v-2.33Z" style="fill:#fff;opacity:0.5"></path><path d="M358.73,220.7c-1.58.72-4.53,1.09-6.1.43s-2.49-1.41-2.49-3v-3.49a2.35,2.35,0,0,0-1,1.77h0v2.33h0a2.67,2.67,0,0,0,1.58,2.2,8.41,8.41,0,0,0,7.63,0C358.5,220.85,358.62,220.78,358.73,220.7Z" style="fill:currentColor;opacity:0.30000000000000004"></path><path d="M350.75,218.6a8.47,8.47,0,0,0,7.63,0c2.1-1.22,2.1-3.19,0-4.41a8.47,8.47,0,0,0-7.63,0C348.64,215.41,348.64,217.38,350.75,218.6Z" style="fill:currentColor"></path><path d="M350.75,218.6a8.47,8.47,0,0,0,7.63,0c2.1-1.22,2.1-3.19,0-4.41a8.47,8.47,0,0,0-7.63,0C348.64,215.41,348.64,217.38,350.75,218.6Z" style="fill:#fff;opacity:0.7000000000000001"></path><path d="M352.21,214.58c-1.7.45-2.26,1.73-1.52,2.74s2.15,1.81,4.69,1.48,3.05-1.69,3.05-2Z" style="fill:#fff;opacity:0.7000000000000001"></path><path d="M351.79,218a6.16,6.16,0,0,0,5.55,0c1.54-.89,1.54-2.32,0-3.21a6.1,6.1,0,0,0-5.55,0C350.25,215.68,350.25,217.11,351.79,218Z" style="fill:currentColor"></path><path d="M351.79,218a6.16,6.16,0,0,0,5.55,0c1.54-.89,1.54-2.32,0-3.21a6.1,6.1,0,0,0-5.55,0C350.25,215.68,350.25,217.11,351.79,218Z" style="fill:#fff;opacity:0.4"></path><path d="M351.79,217.57l-.33.21a2.7,2.7,0,0,0,.33.22,6.16,6.16,0,0,0,5.55,0,2.7,2.7,0,0,0,.33-.22l-.33-.21A6.1,6.1,0,0,0,351.79,217.57Z" style="fill:#fff;opacity:0.4"></path></g><polygon points="356.82 234.24 305.18 204.43 305.18 205.67 356.82 235.48 367.44 229.34 367.44 228.11 356.82 234.24" style="fill:#e0e0e0"></polygon><polygon points="356.82 235.48 356.82 234.24 305.18 204.43 305.18 205.67 356.82 235.48" style="fill:#f0f0f0"></polygon><path d="M367.44,228.11l-10.62,6.13-51.64-29.81,8.18-4.72h0v4.57c-1.09,1.17-.78,2.67.93,3.66a8.41,8.41,0,0,0,7.6,0c1.73-1,2-2.52.89-3.69v-1.93l2.07,1.19v1.17a2,2,0,0,0,.39,1.17,2.92,2.92,0,0,0,.29.34v5.09c-1.11,1.17-.81,2.68.91,3.67a8.41,8.41,0,0,0,7.6,0c1.72-1,2-2.5.91-3.67v-1.94l2.06,1.19v1.17a2,2,0,0,0,.4,1.17,3.07,3.07,0,0,0,.28.35v5.06c-1.13,1.17-.83,2.69.9,3.69a8.41,8.41,0,0,0,7.6,0c1.71-1,2-2.49.92-3.67v-1.93l2.06,1.19v1.16a2,2,0,0,0,.4,1.18,3,3,0,0,0,.29.35v5c-1.15,1.18-.86,2.7.88,3.7a8.39,8.39,0,0,0,7.59,0c1.72-1,2-2.47.95-3.64v-2Z" style="fill:#fafafa"></path><polygon points="356.82 262.3 305.18 232.48 305.18 233.72 356.82 263.53 367.44 257.39 367.44 256.16 356.82 262.3" style="fill:#e0e0e0"></polygon><polygon points="305.18 232.48 356.82 262.29 356.82 263.53 305.18 233.72 305.18 232.48" style="fill:#f0f0f0"></polygon><path d="M313.36,234.24v-1.91c-1.09,1.17-.78,2.67.94,3.66a8.39,8.39,0,0,0,7.59,0c1.73-1,2-2.51.89-3.69v1.94Z" style="fill:none"></path><path d="M359.28,251.44v1.95c1.08,1.17.76,2.66-.95,3.64a8.39,8.39,0,0,1-7.59,0c-1.74-1-2-2.52-.88-3.7V246l-2.75-1.58v1.94c1.1,1.17.79,2.67-.92,3.66a8.41,8.41,0,0,1-7.6,0c-1.73-1-2-2.51-.9-3.69V239L335,237.39v1.94c1.11,1.17.81,2.68-.91,3.67a8.35,8.35,0,0,1-7.6,0c-1.72-1-2-2.5-.91-3.67V232l-2.75-1.59v1.93c1.14,1.18.84,2.69-.89,3.69a8.39,8.39,0,0,1-7.59,0c-1.72-1-2-2.49-.94-3.66v-4.57h0l-8.18,4.72,51.64,29.81,10.63-6.13Z" style="fill:#fafafa"></path></g></g><g id="freepik--Device--inject-145"><g id="freepik--Laptop--inject-145"><g id="freepik--laptop--inject-145"><path d="M426.34,306.86l-54-31.17a3.07,3.07,0,0,0-3.1,0l-93.69,54.1a.69.69,0,0,0,0,1.19l54.51,31.48Z" style="fill:currentColor;opacity:0.2"></path><path d="M422.31,300.3v1.21a5,5,0,0,1-2.5,4.32l-87.27,50.39a5,5,0,0,1-5,0L280,328.84a5,5,0,0,1-2.49-4.33v-1.67h0a.63.63,0,0,0,.31.55l52.25,30.17Z" style="fill:#37474f"></path><path d="M422.31,300.29l-51.74-29.87a3,3,0,0,0-3,0l-89.77,51.84a.66.66,0,0,0,0,1.14l52.23,30.16Z" style="fill:#455a64"></path><polygon points="329.57 349.17 301.66 333.07 383.27 285.95 411.33 301.97 329.57 349.17" style="fill:#37474f"></polygon><polygon points="411.33 301.97 410.26 302.58 383.27 287.18 302.73 333.69 301.67 333.07 383.27 285.95 411.33 301.97" style="fill:#263238"></polygon><polygon points="315.86 304.39 316.37 304.69 330.05 312.58 354.38 298.54 354.89 298.25 340.69 290.05 315.86 304.39" style="fill:#263238"></polygon><polygon points="316.37 304.69 330.05 312.58 354.38 298.54 340.69 290.64 316.37 304.69" style="fill:#37474f"></polygon><path d="M330.05,353.56v3.32a5,5,0,0,0,2.49-.66l87.28-50.39a5,5,0,0,0,2.49-4.32v-1.22Z" style="fill:#263238"></path></g><path d="M331.46,354.3a5.92,5.92,0,0,0,5.09-.4l86.89-50.16a5.91,5.91,0,0,0,2.87-4.13l9.52-56.73a6.45,6.45,0,0,0,.08-1,5.91,5.91,0,0,0-1.75-4.2l-90.3,52.14a4.39,4.39,0,0,0-2.12,3Z" style="fill:#37474f"></path><path d="M330.05,353.56l.6.34a7.61,7.61,0,0,0,.81.4l10.28-61.4a4.39,4.39,0,0,1,2.12-3l90.3-52.14a5.85,5.85,0,0,0-1.21-.92L342.47,289a4.39,4.39,0,0,0-2.12,3.05Z" style="fill:#455a64"></path><path d="M342.58,291l-1.4-.8a4.32,4.32,0,0,0-.83,1.88l-10.3,61.48.6.34a7.61,7.61,0,0,0,.81.4l10.28-61.4A4.41,4.41,0,0,1,342.58,291Z" style="fill:#263238"></path><path d="M380.4,301.93c.63-3.8,4.55-8.84,8.75-11.27s7.09-1.31,6.45,2.49-4.55,8.84-8.75,11.27S379.76,305.73,380.4,301.93Z" style="fill:currentColor"></path></g></g><g id="freepik--petri-dishes--inject-145"><g id="freepik--petri-dish--inject-145"><path id="freepik--shadow--inject-145" d="M236.42,415c6.69,0,12.74-2.24,15.78-5.84a7.72,7.72,0,0,0,1.73-7.39c-1.1-3.56-4.74-6.45-10-7.93a27.72,27.72,0,0,0-7.47-1c-6.69,0-12.74,2.24-15.78,5.84A7.7,7.7,0,0,0,219,406.1c1.09,3.56,4.73,6.45,10,7.93A27.78,27.78,0,0,0,236.42,415Z" style="fill:currentColor;opacity:0.30000000000000004"></path><path d="M252.17,402.91v-4.45c0-2.32-1.53-4.65-4.61-6.43-6.14-3.54-16.11-3.54-22.25,0-3.08,1.78-4.61,4.1-4.61,6.43h0v4.45h0c-.05,2.35,1.48,4.72,4.6,6.51,6.14,3.55,16.11,3.55,22.25,0,3.12-1.79,4.65-4.16,4.61-6.51Z" style="fill:#e0e0e0"></path><path d="M225.31,392c6.14-3.54,16.11-3.54,22.25,0s6.15,9.31,0,12.86-16.11,3.54-22.25,0S219.16,395.58,225.31,392Z" style="fill:#fafafa"></path><path d="M225.94,392.4c5.8-3.34,15.19-3.34,21,0s5.79,8.77,0,12.12-15.19,3.34-21,0S220.15,395.75,225.94,392.4Z" style="fill:#e6e6e6"></path><path d="M246.93,396.51c-5.8-3.34-15.19-3.34-21,0a8.88,8.88,0,0,0-3.91,4,8.91,8.91,0,0,0,3.91,4c5.8,3.34,15.19,3.34,21,0a8.91,8.91,0,0,0,3.91-4A8.88,8.88,0,0,0,246.93,396.51Z" style="fill:#f0f0f0"></path><path d="M233.94,398.91a5.87,5.87,0,0,1,5.32,0c1.48.85,1.48,2.23,0,3.08a5.87,5.87,0,0,1-5.32,0C232.47,401.14,232.47,399.76,233.94,398.91Z" style="fill:currentColor"></path><path d="M240.68,402a1.86,1.86,0,0,1,1.66,0,.5.5,0,0,1,0,1,1.8,1.8,0,0,1-1.66,0A.5.5,0,0,1,240.68,402Z" style="fill:currentColor"></path><path d="M239.18,399.72c0,.4-.57.73-1.29.73s-1.29-.33-1.29-.73.58-.74,1.29-.74S239.18,399.31,239.18,399.72Z" style="fill:#fff;opacity:0.6000000000000001"></path><path d="M242.19,402.27c0,.13-.18.23-.4.23s-.4-.1-.4-.23.18-.22.4-.22S242.19,402.15,242.19,402.27Z" style="fill:#fff;opacity:0.6000000000000001"></path><path d="M230.62,402a1.84,1.84,0,0,1,1.65,0,.5.5,0,0,1,0,1,1.78,1.78,0,0,1-1.65,0A.5.5,0,0,1,230.62,402Z" style="fill:currentColor"></path><path d="M232.12,402.27c0,.13-.17.23-.39.23s-.4-.1-.4-.23.17-.22.4-.22S232.12,402.15,232.12,402.27Z" style="fill:#fff;opacity:0.6000000000000001"></path></g><g id="freepik--petri-dish--inject-145"><path id="freepik--shadow--inject-145" d="M205.81,432.69c6.69,0,12.74-2.24,15.78-5.84a7.73,7.73,0,0,0,1.73-7.39c-1.1-3.56-4.74-6.45-10-7.93a27.38,27.38,0,0,0-7.47-1c-6.69,0-12.74,2.23-15.78,5.84a7.72,7.72,0,0,0-1.73,7.39c1.1,3.55,4.74,6.44,10,7.92A27.39,27.39,0,0,0,205.81,432.69Z" style="fill:currentColor;opacity:0.30000000000000004"></path><path d="M221.56,420.56v-4.44c0-2.33-1.53-4.66-4.61-6.43-6.14-3.55-16.11-3.55-22.25,0-3.08,1.77-4.61,4.1-4.61,6.42h0v4.45h0c0,2.36,1.49,4.72,4.61,6.52,6.14,3.55,16.11,3.55,22.25,0,3.12-1.8,4.65-4.16,4.6-6.52Z" style="fill:#e0e0e0"></path><path d="M194.7,409.69c6.14-3.55,16.11-3.55,22.25,0s6.15,9.3,0,12.85-16.11,3.55-22.25,0S188.55,413.24,194.7,409.69Z" style="fill:#fafafa"></path><path d="M195.33,410.06c5.8-3.35,15.19-3.35,21,0s5.79,8.77,0,12.11-15.19,3.35-21,0S189.54,413.4,195.33,410.06Z" style="fill:#e6e6e6"></path><path d="M216.32,414.17c-5.8-3.35-15.19-3.35-21,0a8.82,8.82,0,0,0-3.91,4,8.82,8.82,0,0,0,3.91,4c5.8,3.35,15.19,3.35,21,0a8.82,8.82,0,0,0,3.91-4A8.82,8.82,0,0,0,216.32,414.17Z" style="fill:#f0f0f0"></path><path d="M202,415.89a5.87,5.87,0,0,1,5.32,0c1.47.85,1.47,2.23,0,3.08a5.93,5.93,0,0,1-5.32,0C200.53,418.12,200.53,416.74,202,415.89Z" style="fill:currentColor"></path><path d="M208.75,419a1.78,1.78,0,0,1,1.65,0,.5.5,0,0,1,0,.95,1.84,1.84,0,0,1-1.65,0A.5.5,0,0,1,208.75,419Z" style="fill:currentColor"></path><path d="M207.25,416.69c0,.41-.58.74-1.29.74s-1.29-.33-1.29-.74.58-.73,1.29-.73S207.25,416.29,207.25,416.69Z" style="fill:#fff;opacity:0.6000000000000001"></path><path d="M210.26,419.25c0,.13-.18.23-.4.23s-.4-.1-.4-.23.18-.23.4-.23S210.26,419.13,210.26,419.25Z" style="fill:#fff;opacity:0.6000000000000001"></path><path d="M205.61,420.88a1.78,1.78,0,0,1,1.65,0,.5.5,0,0,1,0,.95,1.84,1.84,0,0,1-1.65,0A.5.5,0,0,1,205.61,420.88Z" style="fill:currentColor"></path><path d="M207.12,421.12c0,.13-.18.23-.4.23s-.4-.1-.4-.23.18-.23.4-.23S207.12,421,207.12,421.12Z" style="fill:#fff;opacity:0.6000000000000001"></path></g></g><g id="freepik--Books--inject-145"><g id="freepik--books--inject-145"><path d="M150.13,427.32l47.21-27.23c1.86-1.07,1.86-2.82,0-3.89l-68.11-39.4a7.44,7.44,0,0,0-6.75,0L75.28,384c-1.87,1.08-1.87,2.82,0,3.9l68.1,39.4A7.5,7.5,0,0,0,150.13,427.32Z" style="fill:currentColor;opacity:0.2"></path><g id="freepik--Book--inject-145"><polygon points="187.61 398.2 145.74 421.84 81.46 384.95 123.31 361.31 187.61 398.2" style="fill:currentColor"></polygon><polygon points="187.61 398.2 145.74 421.84 81.46 384.95 123.31 361.31 187.61 398.2" style="opacity:0.6000000000000001"></polygon><path d="M145.29,420.11l40.45-23c-1-2.85-.93-3.72.21-7.52l-40.21,22.75S145,412.31,145.29,420.11Z" style="fill:#f5f5f5"></path><path d="M147.71,409.25a8.11,8.11,0,0,0-3.7,6.36v5c0,2.34,1.66,3.29,3.7,2.12L187.6,400V398.2l-39.39,22.23c-1.23.71-2.22.14-2.22-1.27l0-4.43a4.85,4.85,0,0,1,2.22-3.81l39.34-22.25v-2.09Z" style="fill:currentColor"></path><path d="M147.71,409.25a8.11,8.11,0,0,0-3.7,6.36v5c0,2.34,1.66,3.29,3.7,2.12L187.6,400V398.2l-39.39,22.23c-1.23.71-2.22.14-2.22-1.27l0-4.43a4.85,4.85,0,0,1,2.22-3.81l39.34-22.25v-2.09Z" style="opacity:0.5"></path><path d="M187.6,386.59,123.31,349.7,83.42,372.36a8.1,8.1,0,0,0-3.69,6.36v5a2.61,2.61,0,0,0,1.09,2.38L145.1,423a2.57,2.57,0,0,1-1.09-2.38v-5a8.11,8.11,0,0,1,3.69-6.37Z" style="fill:currentColor"></path><path d="M187.6,386.59,123.31,349.7,83.42,372.36a8.1,8.1,0,0,0-3.69,6.36v5a2.61,2.61,0,0,0,1.09,2.38L145.1,423a2.57,2.57,0,0,1-1.09-2.38v-5a8.11,8.11,0,0,1,3.69-6.37Z" style="opacity:0.35000000000000003"></path><path d="M145.09,412a7.46,7.46,0,0,0-1.08,3.62v5A2.57,2.57,0,0,0,145.1,423L80.81,386.07a2.61,2.61,0,0,1-1.09-2.38v-5a7.46,7.46,0,0,1,1.08-3.62Z" style="fill:currentColor"></path><path d="M145.09,412a7.46,7.46,0,0,0-1.08,3.62v5A2.57,2.57,0,0,0,145.1,423L80.81,386.07a2.61,2.61,0,0,1-1.09-2.38v-5a7.46,7.46,0,0,1,1.08-3.62Z" style="opacity:0.45"></path><path d="M89.49,380c-1.2,5.2-1.18,7.24,0,11.05l3.06,1.77c-1.18-3.82-1.2-5.85,0-11.05Z" style="fill:currentColor"></path><path d="M131.66,404.26c-1.2,5.2-1.18,7.17,0,11l3.06,1.77c-1.18-3.81-1.2-5.78,0-11Z" style="fill:currentColor"></path></g><g id="freepik--book--inject-145"><polygon points="196.05 385.97 154.19 409.61 89.9 372.71 131.76 349.07 196.05 385.97" style="fill:currentColor"></polygon><polygon points="196.05 385.97 154.19 409.61 89.9 372.71 131.76 349.07 196.05 385.97" style="opacity:0.4"></polygon><path d="M153.73,407.88l40.46-23c-1-2.86-.93-4.13.2-7.93l-40.2,22.75S153.46,400.08,153.73,407.88Z" style="fill:#f5f5f5"></path><path d="M156.15,396.6a8.12,8.12,0,0,0-3.7,6.37v5.38c0,2.34,1.66,3.29,3.7,2.12l39.9-22.66V386L156.66,408.2c-1.22.7-2.22.13-2.21-1.27l0-4.84a4.91,4.91,0,0,1,2.22-3.82L196.05,376v-2.09Z" style="fill:currentColor"></path><path d="M156.15,396.6a8.12,8.12,0,0,0-3.7,6.37v5.38c0,2.34,1.66,3.29,3.7,2.12l39.9-22.66V386L156.66,408.2c-1.22.7-2.22.13-2.21-1.27l0-4.84a4.91,4.91,0,0,1,2.22-3.82L196.05,376v-2.09Z" style="opacity:0.25"></path><path d="M196.05,374l-64.29-36.9L91.87,359.71a8.15,8.15,0,0,0-3.7,6.37v5.38a2.58,2.58,0,0,0,1.08,2.38l64.29,36.89a2.58,2.58,0,0,1-1.08-2.38V403a8.11,8.11,0,0,1,3.7-6.36Z" style="fill:currentColor"></path><path d="M153.53,399.34a7.6,7.6,0,0,0-1.08,3.62v5.39a2.58,2.58,0,0,0,1.08,2.38L89.25,373.84a2.58,2.58,0,0,1-1.08-2.38v-5.38a7.46,7.46,0,0,1,1.08-3.62Z" style="fill:currentColor"></path><path d="M153.53,399.34a7.6,7.6,0,0,0-1.08,3.62v5.39a2.58,2.58,0,0,0,1.08,2.38L89.25,373.84a2.58,2.58,0,0,1-1.08-2.38v-5.38a7.46,7.46,0,0,1,1.08-3.62Z" style="opacity:0.15"></path><path d="M97.94,367.39c-1.2,5.2-1.18,7.64,0,11.46l3.06,1.77c-1.18-3.82-1.2-6.26,0-11.47Z" style="fill:currentColor"></path><path d="M140.1,391.65c-1.2,5.2-1.18,7.56,0,11.37l3.06,1.77c-1.18-3.82-1.19-6.19,0-11.39Z" style="fill:currentColor"></path><g style="opacity:0.4"><path d="M97.94,367.39c-1.2,5.2-1.18,7.64,0,11.46l3.06,1.77c-1.18-3.82-1.2-6.26,0-11.47Z" style="fill:#fff"></path><path d="M140.1,391.65c-1.2,5.2-1.18,7.56,0,11.37l3.06,1.77c-1.18-3.82-1.19-6.19,0-11.39Z" style="fill:#fff"></path></g></g></g></g><g id="freepik--magnifying-glass--inject-145"><g id="freepik--Glass--inject-145"><path d="M471.17,431.62c0-4.1-2.71-8.2-8.13-11.32-10.83-6.26-28.4-6.26-39.23,0-5.42,3.12-8.13,7.22-8.13,11.32h0v7.55c0,4.1,2.71,8.2,8.13,11.33,10.83,6.25,28.4,6.25,39.23,0,5.42-3.13,8.13-7.23,8.13-11.33v-7.55Zm-46-9c4.84-2.79,11.33-4.33,18.27-4.33s13.44,1.54,18.28,4.33c4.38,2.52,6.78,5.72,6.78,9s-2.4,6.48-6.78,9c-4.84,2.8-11.33,4.34-18.28,4.34s-13.43-1.54-18.27-4.34c-4.38-2.52-6.79-5.72-6.79-9S420.77,425.14,425.15,422.62Z" style="fill:currentColor"></path><path d="M423.8,443c10.84,6.25,28.41,6.25,39.24,0s10.83-16.4,0-22.65-28.4-6.26-39.24,0S413,436.69,423.8,443Zm-5.44-11.33c0-3.28,2.41-6.48,6.79-9,4.83-2.79,11.33-4.33,18.27-4.33s13.44,1.54,18.28,4.33c4.37,2.52,6.78,5.72,6.78,9s-2.41,6.48-6.78,9c-4.84,2.8-11.33,4.34-18.28,4.34s-13.44-1.54-18.27-4.34C420.77,438.1,418.36,434.9,418.36,431.62Z" style="fill:#fff;opacity:0.30000000000000004"></path><path d="M418.36,431.62a7.47,7.47,0,0,0,1.08,3.78,15.13,15.13,0,0,1,5.71-5.23c4.83-2.79,11.33-4.33,18.27-4.33s13.44,1.54,18.28,4.33a15.28,15.28,0,0,1,5.71,5.23,7.55,7.55,0,0,0,1.07-3.78c0-3.28-2.4-6.48-6.78-9-4.84-2.79-11.33-4.33-18.28-4.33s-13.44,1.54-18.27,4.33C420.77,425.14,418.36,428.34,418.36,431.62Z" style="fill:currentColor"></path><path d="M418.36,431.62a7.47,7.47,0,0,0,1.08,3.78,15.13,15.13,0,0,1,5.71-5.23c4.83-2.79,11.33-4.33,18.27-4.33s13.44,1.54,18.28,4.33a15.28,15.28,0,0,1,5.71,5.23,7.55,7.55,0,0,0,1.07-3.78c0-3.28-2.4-6.48-6.78-9-4.84-2.79-11.33-4.33-18.28-4.33s-13.44,1.54-18.27,4.33C420.77,425.14,418.36,428.34,418.36,431.62Z" style="opacity:0.1"></path><path d="M425.15,426c4.83-2.8,11.33-4.33,18.27-4.33s13.44,1.53,18.28,4.33c3.61,2.08,5.88,4.62,6.56,7.29-.68,2.67-2.95,5.21-6.56,7.29-4.84,2.8-11.33,4.34-18.28,4.34s-13.44-1.54-18.27-4.34c-3.61-2.08-5.88-4.62-6.57-7.29C419.27,430.66,421.54,428.12,425.15,426Z" style="fill:#fff;opacity:0.6000000000000001"></path><path d="M436.89,447.19v7.55a36.43,36.43,0,0,1-13.08-4.24c-5.42-3.13-8.13-7.23-8.13-11.33v-7.55a9.48,9.48,0,0,1,.33-2.47h0c-1.32,4.88,1.28,10,7.79,13.8A36.43,36.43,0,0,0,436.89,447.19Z" style="opacity:0.1"></path><path d="M424.63,447.75a4.29,4.29,0,0,0-1.93-3.37,1.37,1.37,0,0,0-1.37-.14h0L412,449.57h0a1.38,1.38,0,0,0-.57,1.26,4.27,4.27,0,0,0,1.93,3.37,1.37,1.37,0,0,0,1.37.14h0l9.34-5.33h0A1.34,1.34,0,0,0,424.63,447.75Z" style="fill:#37474f"></path><path d="M424.05,449a1.34,1.34,0,0,0,.58-1.26,3.71,3.71,0,0,0-.33-1.45l-12,6.89a3.67,3.67,0,0,0,1.08,1,1.37,1.37,0,0,0,1.37.14l9.34-5.33Z" style="fill:#263238"></path><path d="M414.92,454.17a5.6,5.6,0,0,0-2.52-4.39,1.77,1.77,0,0,0-1.76-.19h0l0,0h0l-24.26,12.71,4.62,8.17,23.19-14.67A1.8,1.8,0,0,0,414.92,454.17Z" style="fill:currentColor"></path><path d="M391,470.48l23.19-14.67a1.8,1.8,0,0,0,.76-1.64,5.32,5.32,0,0,0-.84-2.66l-25.49,14.76Z" style="opacity:0.1"></path><path d="M388.64,470.24a7.35,7.35,0,0,1-3.3-5.76c0-2.12,1.5-3,3.33-1.91a7.34,7.34,0,0,1,3.29,5.76C392,470.45,390.46,471.3,388.64,470.24Z" style="fill:currentColor"></path><g style="opacity:0.2"><path d="M388.64,470.24a7.35,7.35,0,0,1-3.3-5.76c0-2.12,1.5-3,3.33-1.91a7.34,7.34,0,0,1,3.29,5.76C392,470.45,390.46,471.3,388.64,470.24Z"></path></g></g></g><g id="freepik--tube-1--inject-145"><g id="freepik--test-tube--inject-145"><path d="M319.23,428.32c-1.88,1.09-3.05,3.42-3.05,6.74,0,6.64,4.66,14.71,10.41,18,2.87,1.66,5.48,1.82,7.36.73l113.76-65.67h0A14.72,14.72,0,1,0,433,362.64h0Z" style="fill:currentColor"></path><path d="M319.23,428.32c-1.88,1.09-3.05,3.42-3.05,6.74,0,6.64,4.66,14.71,10.41,18,2.87,1.66,5.48,1.82,7.36.73l113.76-65.67h0A14.72,14.72,0,1,0,433,362.64h0Z" style="fill:#fff;opacity:0.7000000000000001"></path><path d="M342.84,419.78c-1.31.77-2.13,2.4-2.13,4.72A16.08,16.08,0,0,0,348,437.12c2,1.17,3.83,1.28,5.15.52l91.9-53.06h0a10.31,10.31,0,1,0-10.31-17.85h0Z" style="fill:currentColor"></path><path d="M448.82,370.5a10.29,10.29,0,0,0-13.61-4,7.18,7.18,0,0,1,5.34,13.19h0l-95.42,55.09a12.39,12.39,0,0,0,2.88,2.35c2,1.17,3.83,1.28,5.15.52l91.9-53.06h0A10.3,10.3,0,0,0,448.82,370.5Z" style="opacity:0.1"></path><path d="M342.84,419.78c2.85-1.64,7.46,1,10.31,6s2.84,10.25,0,11.9-7.46-1-10.3-6S340,421.43,342.84,419.78Z" style="fill:currentColor"></path><path d="M342.84,419.78c2.85-1.64,7.46,1,10.31,6s2.84,10.25,0,11.9-7.46-1-10.3-6S340,421.43,342.84,419.78Z" style="fill:#fff;opacity:0.30000000000000004"></path><path d="M342.84,419.78c-1.41.82-2.12,2.56-2.13,4.71.09-.36,2.18-6.38,7.79-2.07,6,4.62,6.71,11.6,5.82,14.11,1.59-2.3,1.2-6.68-1.17-10.79C350.3,420.81,345.69,418.14,342.84,419.78Z" style="fill:#fff;opacity:0.5"></path><path d="M439.33,365.52c1.26-.73,1.44-1.84.34-2.39a5.2,5.2,0,0,0-4.31.43L316.55,432.15a11.23,11.23,0,0,0-.37,2.91c0,.5,0,1,.09,1.51Z" style="fill:#fff;opacity:0.4"></path><path d="M443.9,366.15l-.06-.06a1.5,1.5,0,0,0-1.69-.19L316.56,438.41a20,20,0,0,0,.55,2.12l126.6-73.09A.78.78,0,0,0,443.9,366.15Z" style="fill:#fff;opacity:0.4"></path><path d="M328.18,427.41a10.12,10.12,0,0,0-4.78-1.49l-4.17,2.4a5.61,5.61,0,0,0-1.23,1,10.69,10.69,0,0,0-.86,4.45c0,6.55,4.28,14.41,9.78,18.31l-1,.57.15.1c.17.11.34.23.51.32a10.29,10.29,0,0,0,3.58,1.34,6.44,6.44,0,0,0,2.24,0,4.85,4.85,0,0,0,1.54-.58l4.16-2.4.82-.47h0l14.75-8.52h0l94-54.29h0a14.71,14.71,0,0,0-9-27.36c5.65-.28,11,4.66,12.57,10.68l0,.07a8.33,8.33,0,0,1-4,9.19L338.89,443.33C337.72,437.07,333.37,430.41,328.18,427.41Z" style="fill:currentColor;opacity:0.2"></path><path d="M453.78,369.37h0c3.1,8.79-2.57,13.87-6.4,16.08L328.62,454l.24.08a7.8,7.8,0,0,0,2.61.4h.13l.49-.05.16,0a5.39,5.39,0,0,0,1.08-.31l.12-.05a3.33,3.33,0,0,0,.5-.25l4.16-2.4.82-.47h0l14.75-8.52h0l94-54.29h0A14.72,14.72,0,0,0,453.78,369.37Z" style="opacity:0.1"></path><path d="M300.7,436.56c-2.15,1.25-3.49,3.91-3.49,7.71,0,7.6,5.34,16.84,11.92,20.64,3.29,1.9,6.26,2.08,8.42.83h0l16-9.25h0c2.16-1.25,3.49-3.92,3.49-7.72,0-7.59-5.33-16.83-11.91-20.63-3.29-1.9-6.27-2.08-8.42-.84h0l-16,9.26Z" style="fill:#e0e0e0"></path><g style="opacity:0.15"><path d="M309.59,440.06l.4.7,18.11-10.45c-.21-.19-.42-.4-.63-.57Z"></path><path d="M312.13,442.67l.4.7,18.11-10.46c-.17-.2-.34-.43-.52-.63Z"></path><path d="M332.43,435.26l-18,10.42.4.7,18.08-10.44C332.72,435.71,332.58,435.48,332.43,435.26Z"></path><path d="M318.71,426.63a5.89,5.89,0,0,0-2,.67l-16,9.26c-.2.12-.35.31-.54.45l.15.25Z"></path><path d="M325.29,428.23l-.13-.09a8.11,8.11,0,0,0-.74-.34L306.82,438l.41.71Z"></path><path d="M320.85,426.61l-17.3,10,.4.7L322,426.87A11.32,11.32,0,0,0,320.85,426.61Z"></path><path d="M337.07,448.86l-18.28,10.55.41.7L337,449.85C337,449.51,337.06,449.21,337.07,448.86Z"></path><path d="M334.71,439.25l-.37-.72L316.27,449l.4.7Z"></path><path d="M318.18,462.65l.4.7,17.71-10.22a9.66,9.66,0,0,0,.36-1.15Z"></path><path d="M316.15,466.08l.09.16a5.46,5.46,0,0,0,1.31-.5h0l16-9.25h0a5.87,5.87,0,0,0,1.57-1.38Z"></path><path d="M336.08,442.73c-.08-.26-.19-.51-.28-.77l-18.11,10.46.4.7Z"></path><path d="M336.87,446.28c0-.28-.09-.56-.14-.85l-18.17,10.49.4.7Z"></path></g><path d="M331.31,433.69c4.21,7.19,4.07,12.36,2.82,14.62-.94,1.72-13.11,8.95-15.77,10.48,0,0-5.6,4.32-5.71,4.17s.6,2,1.11,3.55a6.34,6.34,0,0,0,3.79-.77h0l16-9.25h0c2.16-1.25,3.49-3.92,3.49-7.72C337.07,443.78,334.76,438.09,331.31,433.69Z" style="opacity:0.1"></path><ellipse cx="309.13" cy="451.15" rx="9.73" ry="16.85" transform="translate(-184.16 215.01) rotate(-30)" style="fill:#ebebeb"></ellipse><path d="M308.17,436.9c-6.13-3-11,.15-11,7.37a24.19,24.19,0,0,0,3.34,11.46,18.65,18.65,0,0,0,4.89,4.28c5.66,3.3,11.28.05,11.25-6.5C316.67,447.66,313,440.68,308.17,436.9Z" style="fill:#f5f5f5"></path><path d="M314.3,454.14a11.45,11.45,0,0,0-5.17-9c-2.86-1.65-5.18-.32-5.18,3a11.45,11.45,0,0,0,5.18,9C312,458.78,314.3,457.44,314.3,454.14Z" style="fill:#455a64"></path><path d="M320.14,462.76s2-7.5-3.5-16.53-12.67-9.8-14.5-9.39a6.63,6.63,0,0,0-4.57,4.29,7,7,0,0,1,3.13-4.57l16-9.26c.54-.31,2.26-1.68,6.41-.13,0,0-3-.59-4.88.5l-14,8.11s7.3.11,13.05,10.07S320.67,461.79,320.14,462.76Z" style="fill:#fff"></path><g id="freepik--Label--inject-145"><path d="M376.37,411.51c2.36,4.09,3.4,8.35,3.09,11.7l48.49-28a20.9,20.9,0,0,0-3.1-11.7,24.89,24.89,0,0,0-3.89-5.11l-48.47,28A24.93,24.93,0,0,1,376.37,411.51Z" style="opacity:0.1"></path><path d="M375.78,412.67a20.1,20.1,0,0,1,3,11.52l48.49-28a20.21,20.21,0,0,0-3-11.52,24.32,24.32,0,0,0-3.83-5l-48.47,28A24.05,24.05,0,0,1,375.78,412.67Z" style="fill:#fafafa"></path><path d="M425.28,394.89a.58.58,0,0,1-.21.8l-43.18,24.93a.58.58,0,1,1-.58-1l43.18-24.93A.57.57,0,0,1,425.28,394.89Z" style="fill:#e0e0e0"></path><path d="M424.61,392.47a.58.58,0,0,1-.22.79l-43.18,24.93a.58.58,0,1,1-.58-1l43.18-24.93A.59.59,0,0,1,424.61,392.47Z" style="fill:#e0e0e0"></path><path d="M422.76,387.33a.59.59,0,0,1-.21.8l-43.18,24.93a.58.58,0,1,1-.58-1L422,387.12A.58.58,0,0,1,422.76,387.33Z" style="fill:#e0e0e0"></path><path d="M420.68,384.14a.59.59,0,0,1-.21.8l-43.18,24.93a.58.58,0,1,1-.59-1l43.18-24.93A.59.59,0,0,1,420.68,384.14Z" style="fill:#e0e0e0"></path></g></g></g><g id="freepik--Pencil--inject-145"><g id="freepik--pencil--inject-145"><path d="M54.55,422.29l-15.2-3a.48.48,0,0,0-.45.78l10.32,11.68Z" style="fill:#ffa8a7"></path><path d="M38.9,420.09a.48.48,0,0,1,.45-.78l3,.58h0a2.62,2.62,0,0,0-1.22,2.43l0,.27Z" style="fill:#263238"></path><path d="M105.9,464.28l-1.24-.72-1.51-.85L49.22,431.77a6.89,6.89,0,0,1,.42-5c1.08-2.42,3.17-4.32,4.91-4.43l53.9,30.92,2.87,1.64C109.4,453.9,104,463.28,105.9,464.28Z" style="fill:currentColor"></path><path d="M101.16,461.58,98.38,460c-.82-.44-.35-2.45.61-4.53,1.27-2.77,3.77-5.45,4.85-4.88l2,1.18.73.43c-1.09-.57-3.59,2.1-4.86,4.87-.91,2-1.38,3.94-.68,4.47h0S101.13,461.56,101.16,461.58Z" style="fill:#ebebeb"></path><path d="M100.47,461.17c-1.9-1,3.55-10.4,5.46-9.4l2.78,1.6c-1.91-1-7.36,8.38-5.46,9.39Z" style="fill:currentColor"></path><path d="M105.9,464.28l-2.75-1.57c-1.87-1,3.32-10.09,5.3-9.49a.28.28,0,0,1,.12,0l2.75,1.6C109.4,453.9,104,463.28,105.9,464.28Z" style="fill:#ebebeb"></path><path d="M38.83,419.58l.52-.27,11,6,57,32.72c.11-.17.2-.18.27-.06-1.62,2.53-2.85,5.71-1.78,6.27l-1.24-.72-1.51-.85L49.22,431.77h0L38.9,420.09A.47.47,0,0,1,38.83,419.58Z" style="opacity:0.15"></path><path d="M117.56,470.94l-11.66-6.66c-.81-.43-.36-2.42.58-4.49,1.26-2.78,3.74-5.48,4.84-4.93h0L123,461.56c2.32,1.34.19,6.38-2.4,8.64A2.77,2.77,0,0,1,117.56,470.94Z" style="fill:#f28f8f"></path><path d="M116.86,467.33c.67-2.63,2.8-5.2,4.75-5.75a1.88,1.88,0,0,1,1.75.23c1.75,1.63-.29,6.25-2.74,8.39a2.81,2.81,0,0,1-3,.77C116.74,470.45,116.41,469.11,116.86,467.33Z" style="opacity:0.1"></path></g></g></svg>